<svg width="20" height="21" viewBox="0 0 20 21" fill="none" xmlns="http://www.w3.org/2000/svg"><g clip-path="url(#clip0_180_957)"><path d="M19.998 10.5c0-5.523-4.478-10-10-10-5.523 0-10 4.477-10 10 0 4.991 3.656 9.128 8.437 9.878v-6.987H5.896V10.5h2.54V8.297c0-2.506 1.492-3.89 3.776-3.89 1.094 0 2.239.195 2.239.195v2.46H13.19c-1.242 0-1.63.771-1.63 1.562V10.5h2.774l-.444 2.89h-2.33v6.988c4.78-.75 8.438-4.887 8.438-9.878z" fill="#1877F2"/><path d="M13.89 13.39l.444-2.89H11.56V8.624c0-.79.387-1.562 1.63-1.562h1.26v-2.46s-1.144-.196-2.238-.196c-2.284 0-3.777 1.385-3.777 3.89V10.5H5.896v2.89h2.54v6.988a10.08 10.08 0 003.124 0v-6.987h2.33z" fill="#fff"/></g><defs><clipPath id="clip0_180_957"><path fill="#fff" transform="translate(-.002 .5)" d="M0 0h20v20H0z"/></clipPath></defs></svg>