<svg width="21" height="21" viewBox="0 0 21 21" fill="none" xmlns="http://www.w3.org/2000/svg"><g clip-path="url(#clip0_184_5716)"><path d="M15.374.5H4.749A4.688 4.688 0 00.06 5.188v10.625A4.688 4.688 0 004.75 20.5h10.625a4.688 4.688 0 004.687-4.688V5.188A4.688 4.688 0 0015.374.5z" fill="url(#paint0_radial_184_5716)"/><path d="M15.374.5H4.749A4.688 4.688 0 00.06 5.188v10.625A4.688 4.688 0 004.75 20.5h10.625a4.688 4.688 0 004.687-4.688V5.188A4.688 4.688 0 0015.374.5z" fill="url(#paint1_radial_184_5716)"/><path d="M10.062 2.688c-2.122 0-2.388.009-3.221.047-.832.038-1.4.17-1.897.363-.513.2-.95.466-1.383.9-.435.435-.702.87-.902 1.384-.194.497-.326 1.065-.363 1.897-.037.833-.047 1.1-.047 3.221 0 2.122.01 2.387.047 3.22.038.832.17 1.4.363 1.897.2.514.467.95.901 1.384.434.434.87.702 1.383.901.498.194 1.065.325 1.897.363.833.038 1.1.048 3.221.048 2.122 0 2.387-.01 3.22-.047.832-.039 1.4-.17 1.898-.363.514-.2.949-.468 1.383-.902a3.85 3.85 0 00.902-1.384c.192-.497.324-1.065.363-1.896.037-.834.047-1.1.047-3.22 0-2.123-.01-2.389-.047-3.222-.04-.832-.171-1.4-.363-1.896-.2-.514-.467-.95-.902-1.384a3.817 3.817 0 00-1.384-.901c-.498-.194-1.066-.325-1.897-.363-.834-.038-1.099-.047-3.221-.047h.002zm-.7 1.406v.001h.7c2.086 0 2.333.008 3.157.045.762.035 1.175.162 1.45.27.365.14.625.31.898.584.274.273.443.534.585.898.107.275.234.689.269 1.45.037.824.046 1.071.046 3.156s-.009 2.333-.046 3.156c-.035.762-.162 1.175-.27 1.45a2.416 2.416 0 01-.584.898 2.418 2.418 0 01-.898.584c-.275.108-.688.235-1.45.27-.824.037-1.071.045-3.157.045-2.086 0-2.333-.008-3.157-.046-.762-.035-1.175-.162-1.45-.269a2.42 2.42 0 01-.9-.584 2.421 2.421 0 01-.584-.898c-.107-.275-.234-.689-.269-1.45-.037-.824-.045-1.071-.045-3.158 0-2.086.008-2.332.045-3.156.035-.761.162-1.175.27-1.45a2.42 2.42 0 01.584-.899c.273-.273.534-.442.898-.584.276-.108.69-.235 1.451-.27.72-.032 1-.042 2.455-.044l.001.001zm4.87 1.298a.937.937 0 100 1.876.937.937 0 000-1.876zm-4.17 1.096a4.012 4.012 0 100 8.024 4.012 4.012 0 000-8.024zm0 1.408a2.604 2.604 0 110 5.208 2.604 2.604 0 010-5.208z" fill="#fff"/></g><defs><radialGradient id="paint0_radial_184_5716" cx="0" cy="0" r="1" gradientUnits="userSpaceOnUse" gradientTransform="matrix(0 -19.8215 18.4355 0 5.374 22.04)"><stop stop-color="#FD5"/><stop offset=".1" stop-color="#FD5"/><stop offset=".5" stop-color="#FF543E"/><stop offset="1" stop-color="#C837AB"/></radialGradient><radialGradient id="paint1_radial_184_5716" cx="0" cy="0" r="1" gradientUnits="userSpaceOnUse" gradientTransform="matrix(1.73902 8.68797 -35.81212 7.16832 -3.289 1.94)"><stop stop-color="#3771C8"/><stop offset=".128" stop-color="#3771C8"/><stop offset="1" stop-color="#60F" stop-opacity="0"/></radialGradient><clipPath id="clip0_184_5716"><path fill="#fff" transform="translate(.061 .5)" d="M0 0h20v20H0z"/></clipPath></defs></svg>