<svg width="20" height="21" viewBox="0 0 20 21" fill="none" xmlns="http://www.w3.org/2000/svg"><g clip-path="url(#clip0_180_962)"><path d="M9.998.5a9.999 9.999 0 00-7.07 17.071A9.999 9.999 0 1017.067 3.43 9.999 9.999 0 009.998.5z" fill="url(#paint0_linear_180_962)"/><path d="M4.524 10.394c2.916-1.27 4.86-2.107 5.831-2.511 2.778-1.156 3.355-1.356 3.732-1.363.082-.001.267.02.387.116a.43.43 0 01.142.271c.013.078.03.255.016.394-.15 1.581-.802 5.418-1.133 7.19-.139.749-.415 1-.683 1.024-.58.054-1.022-.383-1.584-.752-.88-.577-1.377-.936-2.231-1.499-.988-.65-.347-1.008.215-1.593.147-.153 2.707-2.48 2.755-2.691.006-.026.012-.125-.047-.177-.058-.052-.144-.034-.206-.02-.09.02-1.494.95-4.219 2.788-.398.274-.76.408-1.084.4-.356-.007-1.044-.201-1.555-.367-.625-.204-1.123-.311-1.08-.657.022-.18.27-.364.744-.553z" fill="#fff"/></g><defs><linearGradient id="paint0_linear_180_962" x1="999.998" y1=".5" x2="999.998" y2="2000.5" gradientUnits="userSpaceOnUse"><stop stop-color="#2AABEE"/><stop offset="1" stop-color="#229ED9"/></linearGradient><clipPath id="clip0_180_962"><path fill="#fff" transform="translate(-.002 .5)" d="M0 0h20v20H0z"/></clipPath></defs></svg>