<svg width="18" height="21" viewBox="0 0 18 21" fill="none" xmlns="http://www.w3.org/2000/svg"><g clip-path="url(#clip0_180_951)"><path d="M13.426 7.701a7.835 7.835 0 004.571 1.462V5.885a4.62 4.62 0 01-.96-.1v2.58a7.837 7.837 0 01-4.57-1.462v6.69a6.06 6.06 0 01-6.062 6.059c-1.25 0-2.41-.378-3.375-1.025a6.045 6.045 0 004.334 1.823 6.06 6.06 0 006.063-6.06V7.702zm1.184-3.307a4.568 4.568 0 01-1.184-2.674v-.422h-.91a4.59 4.59 0 002.095 3.096zM5.148 16.06a2.772 2.772 0 013.049-4.32V8.39a6.115 6.115 0 00-.96-.056v2.608a2.772 2.772 0 00-2.09 5.118z" fill="#FF004F"/><path d="M12.467 6.903a7.836 7.836 0 004.57 1.462v-2.58a4.588 4.588 0 01-2.427-1.39 4.59 4.59 0 01-2.093-3.097h-2.39v13.093a2.773 2.773 0 01-4.98 1.668 2.771 2.771 0 012.09-5.117V8.333A6.06 6.06 0 003.03 18.627a6.036 6.036 0 003.375 1.025 6.06 6.06 0 006.062-6.06V6.904z" fill="#fff"/><path d="M17.037 5.785v-.698a4.573 4.573 0 01-2.426-.693 4.584 4.584 0 002.426 1.391m-4.52-4.487a4.672 4.672 0 01-.05-.376V.5h-3.3v13.093a2.772 2.772 0 01-4.02 2.466 2.773 2.773 0 004.98-1.668V1.298h2.39zm-5.28 7.035V7.59A6.06 6.06 0 003.03 18.627 6.06 6.06 0 017.237 8.333z" fill="#00F2EA"/></g><defs><clipPath id="clip0_180_951"><path fill="#fff" transform="translate(.342 .5)" d="M0 0h17.655v20H0z"/></clipPath></defs></svg>