<svg width="26" height="30" viewBox="0 0 26 30" fill="none" xmlns="http://www.w3.org/2000/svg"><g clip-path="url(#clip0_61_689)"><path d="M19.268 10.802A11.397 11.397 0 0026 12.995V8.078c-.475 0-.948-.05-1.413-.15v3.87c-2.51 0-4.834-.812-6.731-2.193V19.64c0 5.02-3.997 9.089-8.927 9.089-1.84 0-3.55-.567-4.97-1.538a8.824 8.824 0 006.383 2.735c4.93 0 8.928-4.069 8.928-9.089V10.802zm1.744-4.96a6.912 6.912 0 01-1.744-4.013v-.632h-1.34a6.889 6.889 0 003.084 4.645zM7.076 23.339a4.188 4.188 0 01-.833-2.517c0-2.296 1.828-4.157 4.084-4.157.42 0 .838.065 1.239.194v-5.027a8.834 8.834 0 00-1.413-.082v3.912a3.992 3.992 0 00-1.24-.194c-2.255 0-4.083 1.86-4.083 4.157 0 1.623.913 3.029 2.246 3.714z" fill="#FF004F"/><path d="M17.855 9.605a11.398 11.398 0 006.73 2.193v-3.87a6.73 6.73 0 01-3.573-2.086 6.889 6.889 0 01-3.083-4.645H14.41v19.639c-.008 2.29-1.834 4.143-4.084 4.143a4.053 4.053 0 01-3.251-1.64 4.165 4.165 0 01-2.246-3.714c0-2.296 1.828-4.157 4.083-4.157.432 0 .849.068 1.24.194V11.75c-4.844.102-8.74 4.13-8.74 9.086 0 2.474.97 4.716 2.545 6.355a8.775 8.775 0 004.97 1.537c4.93 0 8.927-4.07 8.927-9.089V9.605z" fill="#071839"/><path d="M24.586 7.927V6.881a6.643 6.643 0 01-3.574-1.04 6.723 6.723 0 003.574 2.086m-6.657-6.73a7.14 7.14 0 01-.074-.565V0h-4.858v19.64c-.008 2.288-1.833 4.142-4.084 4.142a4.008 4.008 0 01-1.837-.443 4.054 4.054 0 003.25 1.64c2.251 0 4.076-1.853 4.084-4.143V1.197h3.519zM10.153 11.75v-1.114a8.886 8.886 0 00-1.225-.085C3.997 10.551 0 14.62 0 19.639c0 3.147 1.57 5.92 3.958 7.552a9.143 9.143 0 01-2.544-6.355c0-4.955 3.895-8.984 8.739-9.086z" fill="#00F2EA"/></g><defs><clipPath id="clip0_61_689"><path fill="#fff" d="M0 0h26v30H0z"/></clipPath></defs></svg>