<svg width="36" height="36" viewBox="0 0 36 36" fill="none" xmlns="http://www.w3.org/2000/svg"><g clip-path="url(#clip0_163_1932)"><path d="M27.563 0H8.438A8.438 8.438 0 000 8.438v19.124A8.438 8.438 0 008.438 36h19.124A8.438 8.438 0 0036 27.562V8.438A8.438 8.438 0 0027.562 0z" fill="#fff"/><path d="M27.563 0H8.438A8.438 8.438 0 000 8.438v19.124A8.438 8.438 0 008.438 36h19.124A8.438 8.438 0 0036 27.562V8.438A8.438 8.438 0 0027.562 0z" fill="#1D9BF0"/><path d="M28.065 12.855c.015.223.015.446.015.671 0 6.862-5.224 14.776-14.776 14.776v-.004a14.701 14.701 0 01-7.96-2.328 10.427 10.427 0 007.686-2.152 5.2 5.2 0 01-4.852-3.607c.778.15 1.58.12 2.344-.089a5.194 5.194 0 01-4.165-5.09v-.066a5.16 5.16 0 002.357.65 5.2 5.2 0 01-1.608-6.934 14.739 14.739 0 0010.703 5.425 5.196 5.196 0 011.503-4.961 5.199 5.199 0 017.347.225 10.42 10.42 0 003.298-1.261 5.211 5.211 0 01-2.283 2.872 10.334 10.334 0 002.982-.817 10.544 10.544 0 01-2.591 2.69z" fill="#fff"/></g><defs><clipPath id="clip0_163_1932"><path fill="#fff" d="M0 0h36v36H0z"/></clipPath></defs></svg>