<svg width="30" height="21" viewBox="0 0 30 21" fill="none" xmlns="http://www.w3.org/2000/svg"><g clip-path="url(#clip0_180_946)"><path d="M28.714 3.62a3.576 3.576 0 00-2.517-2.518C23.99.5 15.106.5 15.106.5s-8.884.018-11.092.62a3.576 3.576 0 00-2.517 2.518C.829 7.56.57 13.536 1.515 17.3a3.576 3.576 0 002.518 2.518c2.207.602 11.09.602 11.09.602s8.885 0 11.092-.602a3.576 3.576 0 002.517-2.518c.705-3.927.922-9.9-.018-13.682z" fill="red"/><path d="M12.278 14.729l7.37-4.269-7.37-4.268v8.537z" fill="#fff"/></g><defs><clipPath id="clip0_180_946"><path fill="#fff" transform="translate(.898 .5)" d="M0 0h28.444v20H0z"/></clipPath></defs></svg>