<svg width="65" height="19" viewBox="0 0 65 19" fill="none" xmlns="http://www.w3.org/2000/svg"><path d="M25.94 13.07c-.66 0-1.267-.153-1.82-.46a3.497 3.497 0 01-1.31-1.28 3.647 3.647 0 01-.48-1.86c0-.687.16-1.303.48-1.85a3.497 3.497 0 011.31-1.28 3.692 3.692 0 011.82-.46c.66 0 1.263.153 1.81.46.553.307.987.733 1.3 1.28.32.547.48 1.163.48 1.85s-.16 1.307-.48 1.86c-.32.547-.753.973-1.3 1.28-.547.307-1.15.46-1.81.46zm0-1.56c.56 0 1.007-.187 1.34-.56.34-.373.51-.867.51-1.48 0-.62-.17-1.113-.51-1.48-.333-.373-.78-.56-1.34-.56-.567 0-1.02.183-1.36.55-.333.367-.5.863-.5 1.49 0 .62.167 1.117.5 1.49.34.367.793.55 1.36.55zm7.651.04V13h-.87c-.62 0-1.103-.15-1.45-.45-.346-.307-.52-.803-.52-1.49V8.84h-.68V7.42h.68V6.06h1.71v1.36h1.12v1.42h-1.12v2.24c0 .167.04.287.12.36.08.073.214.11.4.11h.61zm2.553.04h2.42V13h-4.33v-1.36l2.32-2.81h-2.3V7.42h4.26v1.36l-2.37 2.81zm9.06-4.17l-3.5 8.23h-1.84l1.28-2.84-2.27-5.39h1.91l1.29 3.49 1.28-3.49h1.85zm3.13 3.98l1.21-3.98h1.82L49.383 13h-2.11l-1.98-5.58h1.83l1.21 3.98zm9.259-3.98V13h-1.71v-.76a1.9 1.9 0 01-.71.6 2.16 2.16 0 01-.98.22c-.427 0-.803-.093-1.13-.28a1.953 1.953 0 01-.76-.83c-.18-.36-.27-.783-.27-1.27V7.42h1.7v3.03c0 .373.097.663.29.87.193.207.453.31.78.31.333 0 .597-.103.79-.31.193-.207.29-.497.29-.87V7.42h1.71zm.888 2.78c0-.573.107-1.077.32-1.51a2.46 2.46 0 01.89-1 2.31 2.31 0 011.25-.35c.394 0 .737.08 1.03.24.3.16.53.37.69.63v-.79h1.71V13h-1.71v-.79c-.166.26-.4.47-.7.63-.293.16-.636.24-1.03.24-.453 0-.866-.117-1.24-.35a2.531 2.531 0 01-.89-1.01c-.213-.44-.32-.947-.32-1.52zm4.18.01c0-.427-.12-.763-.36-1.01a1.138 1.138 0 00-.86-.37c-.34 0-.63.123-.87.37-.233.24-.35.573-.35 1 0 .427.117.767.35 1.02.24.247.53.37.87.37.34 0 .627-.123.86-.37.24-.247.36-.583.36-1.01z" fill="#071839"/><mask id="mask0_300_968" style="mask-type:luminance" maskUnits="userSpaceOnUse" x="0" y="2" width="19" height="15"><path d="M19 2.758H0v13.484h19V2.758z" fill="#fff"/></mask><g mask="url(#mask0_300_968)"><path d="M5.76 15.905c.48-.397 1.1-1.388 1.36-2.142.08-.238.08-.258-.06-.277-.08-.02-.46-.1-.86-.16a16.1 16.1 0 01-1.48-.396c-1.52-.495-2.58-1.11-3.5-2.022C-.06 9.638-.34 8.23.38 6.783c1.56-3.053 7.66-4.68 12.8-3.37 1.28.317 2.6.892 3.5 1.506.66.456 1.46 1.29 1.72 1.825.74 1.427.5 2.796-.74 4.084-1.44 1.508-3.9 2.499-6.86 2.757l-.84.079-.46.436c-1.26 1.17-2.54 1.864-3.66 2.003l-.36.04.28-.238z" fill="#2E67B2"/><path d="M6.6 5.93v2.777c0 .833.32 1.249.88 1.249.58 0 .9-.397.9-1.25V5.932h1.1v2.696c0 1.488-.76 2.201-2.02 2.201-1.22 0-1.94-.674-1.94-2.2V5.93H6.6zm4.72 3.57l-.34 1.23H9.84l1.48-4.8h1.44l1.5 4.82h-1.18l-.36-1.25h-1.4zm1.24-.813l-.3-1.011a12.7 12.7 0 01-.24-.932H12c-.08.277-.14.654-.22.932l-.28 1.01h1.06z" fill="#fff"/></g></svg>