<svg width="62" height="63" viewBox="0 0 62 63" fill="none" xmlns="http://www.w3.org/2000/svg"><mask id="mask0_180_2460" style="mask-type:alpha" maskUnits="userSpaceOnUse" x="0" y="0" width="62" height="63"><path fill="#D9D9D9" d="M0 .5h62v62H0z"/></mask><g clip-path="url(#clip0_180_2460)"><path d="M18.796 52.4c1.566-1.294 3.59-4.53 4.438-6.988.26-.777.26-.841-.196-.906a40.352 40.352 0 00-2.806-.518c-1.24-.259-3.46-.841-4.83-1.294-4.96-1.617-8.419-3.623-11.421-6.6-4.177-4.141-5.09-8.735-2.741-13.459 5.09-9.964 24.996-15.27 41.768-11 4.177 1.036 8.484 2.912 11.421 4.918 2.154 1.488 4.765 4.206 5.613 5.953 2.415 4.659 1.632 9.123-2.415 13.33-4.699 4.917-12.726 8.152-22.385 8.993l-2.741.26L31 46.511c-4.112 3.817-8.288 6.082-11.943 6.535l-1.175.13.914-.777z" fill="#2E67B2"/><path d="M21.537 19.853v9.059c0 2.717 1.044 4.076 2.872 4.076 1.892 0 2.936-1.294 2.936-4.076v-9.06h3.59v8.8c0 4.854-2.48 7.183-6.592 7.183-3.98 0-6.33-2.2-6.33-7.182v-8.8h3.524zM36.939 31.5l-1.11 4.012h-3.72l4.83-15.66h4.699l4.895 15.725h-3.851L41.507 31.5H36.94zm4.046-2.653l-.979-3.3c-.26-.906-.587-2.07-.783-3.041h-.065c-.261.906-.457 2.135-.718 3.041l-.914 3.3h3.46z" fill="#fff"/></g><defs><clipPath id="clip0_180_2460"><path fill="#fff" transform="translate(0 9.5)" d="M0 0h62v44H0z"/></clipPath></defs></svg>