<svg width="74" height="19" viewBox="0 0 74 19" fill="none" xmlns="http://www.w3.org/2000/svg"><g clip-path="url(#clip0_180_2508)"><mask id="mask0_180_2508" style="mask-type:luminance" maskUnits="userSpaceOnUse" x="0" y="0" width="74" height="19"><path d="M74 0H0v19h74V0z" fill="#fff"/></mask><g mask="url(#mask0_180_2508)"><path d="M19.448 6.734h7.493v1.462h-2.947v8.216h-1.62V8.196h-2.933V6.734h.007zm7.173 2.67h1.385v1.353h.026c.045-.191.13-.376.254-.553.124-.178.275-.349.451-.492.177-.15.373-.266.588-.362a1.73 1.73 0 01.66-.136c.17 0 .294.006.36.013.064.007.13.02.202.027v1.49a4.478 4.478 0 00-.32-.048 2.587 2.587 0 00-.32-.02c-.249 0-.484.054-.706.156-.222.103-.412.26-.575.458-.163.205-.294.45-.392.751-.098.3-.144.642-.144 1.031v3.333h-1.476v-7h.007zm10.713 7.008h-1.45v-.977h-.026a2.068 2.068 0 01-.81.847c-.36.212-.726.321-1.098.321-.882 0-1.522-.225-1.914-.683-.392-.457-.588-1.147-.588-2.07V9.406h1.477V13.7c0 .614.11 1.051.34 1.304.221.253.541.382.946.382.314 0 .569-.047.778-.15a1.32 1.32 0 00.503-.403 1.57 1.57 0 00.28-.6c.06-.233.086-.486.086-.759V9.412h1.476v7zm2.515-2.247c.046.45.209.765.49.95a1.91 1.91 0 001.025.272c.138 0 .294-.013.47-.034.177-.02.347-.068.497-.13a.957.957 0 00.386-.28.7.7 0 00.137-.477.673.673 0 00-.21-.485 1.46 1.46 0 00-.496-.308 4.798 4.798 0 00-.692-.198c-.261-.054-.523-.116-.79-.177a7.231 7.231 0 01-.797-.233 2.396 2.396 0 01-.686-.368 1.604 1.604 0 01-.484-.588c-.124-.239-.183-.532-.183-.888 0-.382.092-.696.268-.956a2.06 2.06 0 01.673-.621c.274-.157.575-.267.908-.335.333-.061.653-.095.954-.095.346 0 .68.04.993.116.313.075.6.198.855.375.255.171.464.396.634.67.17.273.274.607.32.997H42.58c-.072-.37-.23-.622-.484-.745a1.907 1.907 0 00-.875-.191c-.105 0-.229.007-.373.027a1.94 1.94 0 00-.405.103.875.875 0 00-.32.218.542.542 0 00-.13.376.6.6 0 00.189.458c.124.116.287.211.49.293.203.075.431.144.692.198.262.055.53.116.804.178.268.061.53.143.79.232.262.089.49.212.693.369a1.8 1.8 0 01.49.58c.124.233.19.526.19.868 0 .416-.092.765-.275 1.058a2.217 2.217 0 01-.706.704 3.234 3.234 0 01-.967.396 4.647 4.647 0 01-1.051.123 4.28 4.28 0 01-1.176-.15 2.807 2.807 0 01-.934-.451 2.211 2.211 0 01-.62-.758c-.151-.3-.23-.663-.242-1.08h1.489v-.013zm4.873-4.76h1.117V7.3h1.477v2.104h1.332v1.154h-1.333v3.743c0 .164.007.3.02.423a.803.803 0 00.092.3.423.423 0 00.215.185c.098.04.222.061.392.061.105 0 .21 0 .314-.006.104-.007.209-.02.313-.048v1.195c-.163.02-.326.034-.477.055-.156.02-.313.027-.476.027-.392 0-.706-.041-.941-.116a1.211 1.211 0 01-.556-.342 1.205 1.205 0 01-.274-.56 4.393 4.393 0 01-.085-.772v-4.131h-1.117V9.405h-.013zm4.971 0h1.398v.95h.026c.21-.41.497-.698.87-.875.372-.178.77-.266 1.208-.266.529 0 .986.095 1.378.293.392.191.719.458.98.8.261.34.45.737.581 1.188.131.45.196.935.196 1.448 0 .47-.058.928-.176 1.365a3.732 3.732 0 01-.53 1.175 2.633 2.633 0 01-.9.813c-.366.205-.791.307-1.287.307-.216 0-.432-.02-.647-.061a2.756 2.756 0 01-.62-.198 2.22 2.22 0 01-.974-.84h-.026V19h-1.477V9.405zm5.161 3.51c0-.314-.04-.621-.118-.922a2.54 2.54 0 00-.352-.792 1.83 1.83 0 00-.582-.553 1.575 1.575 0 00-.803-.212c-.62 0-1.091.225-1.405.676-.313.45-.47 1.052-.47 1.803 0 .355.04.683.124.984.085.3.203.56.372.778.164.219.36.39.588.512.229.13.497.192.797.192.34 0 .62-.075.856-.219.235-.143.425-.335.575-.56.15-.232.261-.492.327-.785a4.59 4.59 0 00.091-.902zm2.607-6.18h1.476v1.46H57.46v-1.46zm0 2.67h1.476v7.007H57.46V9.405zm2.795-2.67h1.477v9.677h-1.477V6.734zm6.004 9.868a3.513 3.513 0 01-1.43-.28 3.16 3.16 0 01-1.066-.765 3.367 3.367 0 01-.66-1.168 4.697 4.697 0 01-.228-1.489c0-.532.078-1.024.229-1.475.15-.45.372-.84.66-1.168.287-.327.646-.58 1.064-.764.418-.185.895-.28 1.43-.28.536 0 1.013.095 1.431.28.418.184.771.443 1.065.764.288.328.51.718.66 1.168.15.451.229.943.229 1.476 0 .54-.079 1.038-.23 1.488-.15.451-.371.84-.659 1.168-.287.328-.647.58-1.065.765-.418.185-.895.28-1.43.28zm0-1.222c.326 0 .614-.075.855-.219.242-.143.438-.335.595-.567a2.6 2.6 0 00.346-.792c.072-.294.111-.594.111-.902 0-.3-.039-.594-.11-.894a2.41 2.41 0 00-.347-.792 1.832 1.832 0 00-.594-.56 1.653 1.653 0 00-.856-.219c-.327 0-.614.075-.856.219a1.908 1.908 0 00-.594.56 2.529 2.529 0 00-.347.792 3.81 3.81 0 00-.11.895c0 .307.038.607.11.901.072.294.19.56.347.792.156.232.352.424.594.567.242.15.53.219.856.219zm3.815-5.976h1.117V7.3h1.476v2.104h1.333v1.154h-1.333v3.743c0 .164.007.3.02.423a.803.803 0 00.091.3.423.423 0 00.216.185c.098.04.222.061.392.061.104 0 .209 0 .313-.006.105-.007.21-.02.314-.048v1.195c-.163.02-.327.034-.477.055a3.75 3.75 0 01-.477.027c-.392 0-.706-.041-.94-.116a1.211 1.211 0 01-.556-.342 1.205 1.205 0 01-.274-.56 4.403 4.403 0 01-.085-.772v-4.131h-1.117V9.405h-.013z" fill="#071839"/><path d="M17.723 6.734h-6.768L8.865 0 6.768 6.734 0 6.727l5.48 4.166-2.096 6.727 5.48-4.159 5.475 4.16-2.09-6.728 5.474-4.159z" fill="#00B67A"/><path d="M12.72 12.417l-.47-1.523-3.385 2.567 3.854-1.044z" fill="#005128"/></g></g><defs><clipPath id="clip0_180_2508"><path fill="#fff" d="M0 0h74v19H0z"/></clipPath></defs></svg>