<svg width="40" height="40" viewBox="0 0 40 40" fill="none" xmlns="http://www.w3.org/2000/svg"><path d="M35.871 21.074a10.408 10.408 0 01-4.364 14.06l-3.342 1.762-.822.432a5.568 5.568 0 01-4.92.132L9.372 31.883l1.229-3.646 7.763 1.5-4.02-7.64L7.87 9.799l3.153-1.658 6.472 12.3 1.558-.818-2.854-5.426 3.152-1.657 2.853 5.425 1.557-.82-2.203-4.187 3.153-1.658 2.203 4.187 1.558-.826-1.512-2.882 3.152-1.654 1.512 2.882 4.246 8.07.001-.003zM5.724 11.46a4.69 4.69 0 013.31-8.005 4.695 4.695 0 014.42 6.263l.827 1.564a6.116 6.116 0 00-5.241-9.25A6.112 6.112 0 008.6 14.24l-.832-1.581a4.664 4.664 0 01-2.044-1.2z" fill="#1D5CE3"/></svg>