<svg width="40" height="40" viewBox="0 0 40 40" fill="none" xmlns="http://www.w3.org/2000/svg"><path d="M15.987 13.584l.969 3.44c.912 3.242 1.367 4.863 2.709 5.6 1.34.739 3.043.303 6.447-.565l3.612-.924c3.404-.868 5.106-1.302 5.881-2.578.775-1.278.32-2.9-.594-6.14l-.967-3.44c-.912-3.243-1.37-4.864-2.708-5.601-1.343-.739-3.046-.303-6.45.567l-3.611.92c-3.405.868-5.107 1.303-5.88 2.582-.775 1.276-.32 2.897.592 6.139z" fill="#1D5CE3"/><path d="M2.051 7.045a1.429 1.429 0 01.67-.86A1.414 1.414 0 013.8 6.051l3.221.898a5.12 5.12 0 012.261 1.31 5.16 5.16 0 011.326 2.261l4.07 14.806.299 1.04a5.607 5.607 0 012.879 2.41l.586-.183 16.781-4.383a1.411 1.411 0 011.49.52 1.428 1.428 0 01.092 1.582 1.425 1.425 0 01-.867.659L19.22 31.338l-.624.194c-.012 2.415-1.67 4.625-4.181 5.279-3.008.787-6.102-.955-6.907-3.887-.806-2.932.98-5.95 3.988-6.736.15-.038.3-.07.448-.098L7.873 11.28A2.303 2.303 0 006.265 9.7L3.04 8.8a1.416 1.416 0 01-.857-.671 1.431 1.431 0 01-.133-1.084z" fill="#1D5CE3"/></svg>