<svg width="40" height="41" viewBox="0 0 40 41" fill="none" xmlns="http://www.w3.org/2000/svg"><g clip-path="url(#clip0_186_5814)"><path d="M20 40.971a20 20 0 100-40 20 20 0 000 40zm-7.18-14.57c1.399 1.617 3.79 3.32 7.18 3.32 3.39 0 5.781-1.703 7.18-3.32a1.25 1.25 0 011.765-.125 1.25 1.25 0 01.125 1.765c-1.742 2-4.765 4.18-9.07 4.18-4.305 0-7.328-2.18-9.07-4.18a1.25 1.25 0 01.125-1.765 1.25 1.25 0 011.765.125zM17 18.846l-.016-.015c-.015-.016-.03-.04-.054-.07a6.053 6.053 0 00-.22-.266 9.458 9.458 0 00-.796-.805c-.687-.61-1.469-1.094-2.164-1.094-.695 0-1.477.485-2.164 1.094a9.374 9.374 0 00-.797.805 6.135 6.135 0 00-.219.265c-.023.031-.047.055-.054.07l-.016.016a.618.618 0 01-.695.219.632.632 0 01-.43-.594c0-1.398.523-2.781 1.297-3.812.765-1.016 1.867-1.813 3.078-1.813 1.21 0 2.313.797 3.078 1.813.774 1.03 1.297 2.414 1.297 3.812a.629.629 0 01-.43.594.612.612 0 01-.695-.219zm12.5 0l-.016-.015c-.015-.016-.03-.04-.054-.07a6.053 6.053 0 00-.22-.266 9.458 9.458 0 00-.796-.805c-.687-.61-1.469-1.094-2.164-1.094-.695 0-1.477.485-2.164 1.094a9.374 9.374 0 00-.797.805 6.135 6.135 0 00-.219.265c-.023.031-.047.055-.054.07l-.016.016a.618.618 0 01-.695.219.632.632 0 01-.43-.594c0-1.398.523-2.781 1.297-3.812.765-1.016 1.867-1.813 3.078-1.813 1.21 0 2.313.797 3.078 1.813.774 1.03 1.297 2.414 1.297 3.812a.629.629 0 01-.43.594.612.612 0 01-.695-.219z" fill="#1D5CE3"/></g><defs><clipPath id="clip0_186_5814"><path fill="#fff" transform="translate(0 .971)" d="M0 0h40v40H0z"/></clipPath></defs></svg>