<svg width="40" height="41" viewBox="0 0 40 41" fill="none" xmlns="http://www.w3.org/2000/svg"><path d="M6.667 35.971a3.208 3.208 0 01-2.353-.978 3.216 3.216 0 01-.98-2.355V9.305c0-.917.326-1.702.98-2.354a3.218 3.218 0 012.353-.98h26.666c.917 0 1.702.327 2.355.98.654.654.98 1.438.979 2.354v23.333c0 .916-.326 1.702-.979 2.355a3.202 3.202 0 01-2.355.978H6.668zm1.667-6.666h8.333V25.97H8.333v3.334zM24.25 25.97l8.25-8.25-2.375-2.375-5.875 5.917-2.375-2.375-2.333 2.375 4.708 4.708zM8.334 22.638h8.333v-3.334H8.333v3.334zm0-6.667h8.333v-3.333H8.333v3.333z" fill="#1D5CE3"/></svg>