<svg width="40" height="40" viewBox="0 0 40 40" fill="none" xmlns="http://www.w3.org/2000/svg"><path d="M36.666 8.333a5 5 0 11-9.999 0 5 5 0 0110 0z" fill="#1D5CE3"/><path fill-rule="evenodd" clip-rule="evenodd" d="M26.02 3.397c-1.703-.064-3.688-.064-6.02-.064-7.857 0-11.785 0-14.226 2.44-2.44 2.444-2.44 6.37-2.44 14.227s0 11.785 2.44 14.225c2.443 2.442 6.37 2.442 14.226 2.442 7.857 0 11.785 0 14.225-2.442 2.442-2.438 2.442-6.368 2.442-14.225 0-2.332 0-4.317-.064-6.02A7.5 7.5 0 0126.02 3.397zm3.114 12.31a1.25 1.25 0 01.16 1.76l-3.049 3.658c-.547.657-1.04 1.25-1.5 1.667-.503.45-1.133.855-1.966.855-.834 0-1.465-.404-1.967-.857-.46-.417-.954-1.008-1.502-1.667l-.486-.583c-.619-.742-.999-1.193-1.312-1.475a1.335 1.335 0 00-.272-.203l-.016-.009-.009.004-.012.005c-.098.056-.19.124-.271.203-.312.283-.692.733-1.31 1.475l-2.995 3.593a1.25 1.25 0 01-1.92-1.6l3.048-3.658c.547-.657 1.04-1.25 1.5-1.667.503-.45 1.133-.855 1.967-.855.833 0 1.465.404 1.966.857.46.417.954 1.008 1.502 1.667l.487.583c.618.742.998 1.193 1.311 1.475.144.13.23.183.272.203l.005.002.014.007.016-.009c.1-.056.191-.124.273-.203.312-.283.692-.733 1.31-1.475l2.995-3.593a1.25 1.25 0 011.76-.16z" fill="#1D5CE3"/></svg>