<svg width="40" height="41" viewBox="0 0 40 41" fill="none" xmlns="http://www.w3.org/2000/svg"><g clip-path="url(#clip0_186_5807)"><path d="M.195 17.307c-.117.938-.195 1.89-.195 2.86 0 8.515 4.664 15.93 11.57 19.859l1.29-2.719v-18.57l-1.43-1.43H.195zM40 18.737c0-1.43-1.43-2.86-2.86-2.86H25.71c.712-2.859 1.43-5.71 1.43-7.14 0-2.86-1.43-5.711-2.14-6.43-.016-.015-.71-.71-2.14-.71-2.141 0-2.141 2.14-2.141 2.14 0 .039-.711 3.57-.711 5 0 1.43-2.86 7.14-4.29 8.57l-1.429.711v20l1.43.711h15.71c2.86 0 4.29-1.43 4.29-2.86s-1.43-2.859-2.86-2.859c2.86 0 4.29-1.43 4.29-2.86 0-1.429-1.43-2.858-2.86-2.858 2.86 0 4.29-1.43 4.29-2.86s-1.43-2.86-2.86-2.86C38.57 21.597 40 20.168 40 18.738z" fill="#1D5CE3"/></g><defs><clipPath id="clip0_186_5807"><path fill="#fff" transform="translate(0 .971)" d="M0 0h40v40H0z"/></clipPath></defs></svg>