<svg width="40" height="40" viewBox="0 0 40 40" fill="none" xmlns="http://www.w3.org/2000/svg"><path fill-rule="evenodd" clip-rule="evenodd" d="M36.667 20c0 9.205-7.462 16.667-16.667 16.667-2.666 0-5.187-.627-7.42-1.74a2.717 2.717 0 00-1.915-.222l-3.71.993a2.168 2.168 0 01-2.651-2.653l.991-3.71a2.717 2.717 0 00-.223-1.913A16.6 16.6 0 013.334 20c0-9.205 7.461-16.667 16.666-16.667S36.667 10.795 36.667 20zM12.5 18.513c0 2.282 2.198 4.675 4.215 6.39 1.372 1.167 2.058 1.752 3.285 1.752 1.227 0 1.913-.583 3.285-1.752 2.017-1.716 4.215-4.108 4.215-6.39 0-4.461-4.125-6.126-7.5-2.68-3.375-3.446-7.5-1.781-7.5 2.68z" fill="#1D5CE3"/></svg>