<svg width="40" height="40" viewBox="0 0 40 40" fill="none" xmlns="http://www.w3.org/2000/svg"><path d="M20 3.75C9.645 3.75 1.25 12.23 1.25 22.7a19.008 19.008 0 004.713 12.568c.092.102.175.203.268.296.738.686.962.686 1.548.686.586 0 .971 0 1.557-.694C11.875 32.55 15.781 31.25 20 31.25c4.219 0 8.13 1.306 10.664 4.306.586.694.963.694 1.557.694.595 0 .883 0 1.549-.686.095-.098.175-.194.267-.296A19.008 19.008 0 0038.75 22.7c0-10.47-8.395-18.95-18.75-18.95zm-1.25 5h2.5v5h-2.5v-5zm-7.5 15h-5v-2.5h5v2.5zm1.679-6.553L9.394 13.66l1.767-1.767 3.536 3.535-1.768 1.768zm8.837 6.819c-.152.21-.337.395-.547.547a2.352 2.352 0 01-2.735-3.829L25 17.5l-3.234 6.516zm3.537-8.587l3.536-3.535 1.767 1.767-3.535 3.536-1.768-1.768zm8.447 8.321h-5v-2.5h5v2.5z" fill="#1D5CE3"/></svg>