<svg width="40" height="40" viewBox="0 0 40 40" fill="none" xmlns="http://www.w3.org/2000/svg"><path d="M13.333 29.167a2.5 2.5 0 012.489 2.26l.011.24V35a2.5 2.5 0 01-4.988.24l-.012-.24v-3.333a2.5 2.5 0 012.5-2.5zm13.742-12.7a2.5 2.5 0 013.345-.17l.19.17 2.943 2.943a10 10 0 01-13.836 14.435l-.305-.292-2.944-2.943a2.5 2.5 0 013.345-3.708l.19.171 2.944 2.944a5 5 0 007.296-6.83l-.225-.24-2.943-2.944a2.499 2.499 0 010-3.536zM8.333 25.833a2.5 2.5 0 01.242 4.989l-.242.011H6.667a2.5 2.5 0 01-.24-4.988l.24-.012h1.666zm6.364-11.136a2.5 2.5 0 013.345-.172l.19.172 7.071 7.071a2.5 2.5 0 01-3.345 3.707l-.19-.172-7.071-7.071a2.5 2.5 0 010-3.535zm-8.25-8.25a10 10 0 0113.838-.292l.305.292 2.95 2.95a2.5 2.5 0 01-3.347 3.706l-.19-.171-2.95-2.95a5 5 0 00-7.295 6.833l.225.238 2.95 2.95a2.5 2.5 0 01-3.346 3.707l-.19-.172-2.95-2.95a10 10 0 010-14.141zm26.886 2.72a2.5 2.5 0 110 5h-1.666a2.5 2.5 0 010-5h1.666zM26.667 2.5a2.5 2.5 0 012.488 2.26l.012.24v3.333a2.5 2.5 0 01-4.989.24l-.011-.24V5a2.5 2.5 0 012.5-2.5z" fill="#1D5CE3"/></svg>