<svg width="39" height="25" viewBox="0 0 39 25" fill="none" xmlns="http://www.w3.org/2000/svg"><g clip-path="url(#clip0_52_757)"><mask id="mask0_52_757" style="mask-type:luminance" maskUnits="userSpaceOnUse" x="0" y="0" width="39" height="25"><path d="M38.5.783H.928V24.64H38.5V.783z" fill="#fff"/></mask><g mask="url(#mask0_52_757)"><path d="M35.16.783H3.612c-.239 0-.478 0-.716.06-.239.06-.477.12-.716.238-.179.12-.417.239-.596.418a1.408 1.408 0 00-.358.537c-.12.238-.179.417-.239.656-.06.238-.06.477-.06.715v18.608c0 .238 0 .477.06.715.06.239.12.477.24.656.118.18.238.418.417.537.178.179.357.298.596.417.179.12.417.18.656.239.238.06.477.06.716.06h32.264c.239 0 .477 0 .716-.06.238-.06.477-.12.656-.239.179-.119.417-.238.596-.417s.298-.358.418-.537c.119-.179.178-.417.238-.656V3.407c0-.238 0-.477-.06-.715-.06-.239-.119-.477-.238-.656-.12-.18-.239-.418-.417-.537-.18-.12-.358-.298-.597-.418-.179-.119-.417-.179-.656-.238-.238-.06-.477-.06-.716-.06h-.656z" fill="#071839"/><path d="M11.186 8.775c.298-.418.536-.955.477-1.491-.477 0-1.074.298-1.372.715-.298.358-.596.895-.477 1.432.537.06 1.014-.239 1.372-.656zm.477.775c-.776-.06-1.431.417-1.79.417-.357 0-.954-.417-1.55-.417-.775 0-1.55.477-1.908 1.193-.835 1.431-.239 3.518.596 4.652.358.536.835 1.192 1.49 1.192.597 0 .836-.357 1.552-.357.715 0 .894.357 1.55.357s1.074-.536 1.431-1.133a4.514 4.514 0 00.656-1.312s-1.252-.477-1.252-1.849c0-1.192.954-1.73 1.014-1.73-.656-.894-1.491-.953-1.79-1.013zm6.679-1.61c1.67 0 2.863 1.193 2.863 2.803 0 1.67-1.193 2.803-2.863 2.803h-1.908v2.922h-1.312V7.94h3.22zm-1.908 4.532h1.55c1.134 0 1.79-.656 1.79-1.67 0-1.073-.656-1.67-1.79-1.67h-1.55v3.34zm5.07 2.267c0-1.074.834-1.73 2.325-1.85l1.73-.118v-.477c0-.716-.478-1.134-1.253-1.134-.775 0-1.193.358-1.312.895h-1.193c.06-1.133 1.074-1.968 2.565-1.968 1.55 0 2.505.775 2.505 2.028v4.294h-1.253v-1.014c-.358.715-1.133 1.133-1.968 1.133-1.252.12-2.147-.656-2.147-1.79zm4.055-.537v-.477l-1.551.12c-.775.059-1.193.357-1.193.894 0 .536.477.894 1.133.894.955 0 1.61-.656 1.61-1.431zm2.445 4.592V17.78h.417c.597 0 .895-.238 1.133-.894l.12-.358-2.326-6.202h1.372l1.61 5.069 1.61-5.07h1.372l-2.326 6.56c-.537 1.492-1.133 1.969-2.445 1.969-.12 0-.418 0-.537-.06z" fill="#fff"/></g></g><defs><clipPath id="clip0_52_757"><path fill="#fff" transform="translate(.5)" d="M0 0h38v25H0z"/></clipPath></defs></svg>