<svg width="26" height="25" viewBox="0 0 26 25" fill="none" xmlns="http://www.w3.org/2000/svg"><g clip-path="url(#clip0_52_765)"><mask id="mask0_52_765" style="mask-type:luminance" maskUnits="userSpaceOnUse" x="0" y="0" width="25" height="25"><path d="M24.687.783H.83V24.64h23.856V.783z" fill="#fff"/></mask><g mask="url(#mask0_52_765)"><path d="M24.33 15.573c-1.611 6.382-8.052 10.258-14.433 8.708C3.515 22.67-.421 16.23 1.189 9.848 2.8 3.467 9.241-.469 15.622 1.141c6.381 1.61 10.317 8.051 8.707 14.432z" fill="#F7931A"/><path d="M17.71 11.459c.178-1.372-.836-2.147-2.267-2.624l.477-1.85-1.133-.297-.477 1.848c-.298-.06-.597-.119-.895-.238l.478-1.849-1.193-.298L12.223 8l-.716-.18-1.55-.417-.299 1.193.835.179c.477.12.537.417.537.656l-.537 2.147c.06 0 .06 0 .12.06l-.12-.06-.716 2.982c-.06.12-.179.358-.536.239l-.835-.18-.597 1.313 1.491.357c.298.06.537.12.835.18l-.477 1.908 1.133.298.477-1.849c.299.06.597.18.895.239l-.477 1.848 1.073.358.477-1.908c1.968.358 3.4.239 4.056-1.55.477-1.432 0-2.207-1.074-2.744.776-.12 1.372-.656 1.491-1.61zm-2.625 3.638c-.358 1.431-2.743.656-3.518.477l.656-2.505c.775.179 3.28.537 2.862 2.028zm.358-3.698c-.298 1.312-2.326.656-2.982.477l.596-2.266c.656.179 2.744.477 2.386 1.79z" fill="#fff"/></g></g><defs><clipPath id="clip0_52_765"><path fill="#fff" transform="translate(.5)" d="M0 0h25v25H0z"/></clipPath></defs></svg>