<svg width="26" height="25" viewBox="0 0 26 25" fill="none" xmlns="http://www.w3.org/2000/svg"><g clip-path="url(#clip0_52_772)"><mask id="mask0_52_772" style="mask-type:luminance" maskUnits="userSpaceOnUse" x="1" y="0" width="25" height="25"><path d="M25.259.783H1.403V24.64H25.26V.783z" fill="#fff"/></mask><g mask="url(#mask0_52_772)"><path d="M13.331 24.639c6.599 0 11.928-5.34 11.928-11.928 0-6.588-5.33-11.928-11.928-11.928-6.598 0-11.928 5.34-11.928 11.928 0 6.588 5.34 11.928 11.928 11.928z" fill="#627EEA"/><path d="M13.287 3.946v6.292l-5.23 2.396 5.23-8.688z" fill="#fff"/><path d="M13.287 10.238v5.46l-5.23-3.064 5.23-2.396z" fill="#C0CCF7"/><path d="M13.287 16.683v4.268l-5.23-7.343 5.23 3.075z" fill="#fff"/><path d="M13.287 3.946v6.292l5.231 2.396-5.23-8.688z" fill="#C0CCF7"/><path d="M13.287 10.238v5.46l5.231-3.064-5.23-2.396z" fill="#8198EE"/><path d="M13.287 16.683v4.268l5.231-7.354-5.23 3.086z" fill="#C0CCF7"/></g></g><defs><clipPath id="clip0_52_772"><path fill="#fff" transform="translate(.5)" d="M0 0h25v25H0z"/></clipPath></defs></svg>