<svg width="62" height="25" viewBox="0 0 62 25" fill="none" xmlns="http://www.w3.org/2000/svg"><g clip-path="url(#clip0_52_784)"><mask id="mask0_52_784" style="mask-type:luminance" maskUnits="userSpaceOnUse" x="0" y="0" width="62" height="25"><path d="M61.211.783H.976V24.64h60.235V.783z" fill="#fff"/></mask><g mask="url(#mask0_52_784)"><path d="M29.483 12.413v6.977h-2.266V2.095h5.904c1.432 0 2.803.537 3.817 1.491 1.014.895 1.61 2.266 1.61 3.638 0 1.372-.536 2.743-1.61 3.638-1.014.954-2.326 1.491-3.817 1.491h-3.638v.06zm0-8.111v6.023h3.698c.835 0 1.61-.298 2.207-.894 1.192-1.133 1.192-2.982.06-4.175l-.06-.06a2.76 2.76 0 00-2.207-.894h-3.698zm14.194 2.922c1.67 0 2.923.418 3.877 1.312.954.895 1.431 2.088 1.431 3.638v7.276h-2.087v-1.61h-.12c-.954 1.372-2.146 2.027-3.697 2.027-1.312 0-2.386-.357-3.28-1.133a3.81 3.81 0 01-1.312-2.862c0-1.253.477-2.207 1.371-2.923.955-.715 2.147-1.073 3.698-1.073 1.312 0 2.386.239 3.28.716v-.537a2.66 2.66 0 00-.895-1.968 3.236 3.236 0 00-2.146-.835c-1.253 0-2.207.537-2.982 1.55L38.847 9.55C39.98 8 41.59 7.224 43.676 7.224zm-2.862 8.588c0 .597.298 1.133.715 1.431.477.358 1.133.597 1.73.597.954 0 1.849-.358 2.505-1.014.715-.716 1.133-1.491 1.133-2.445-.716-.537-1.67-.835-2.923-.835-.894 0-1.67.238-2.266.656-.596.417-.894.954-.894 1.61zm20.396-8.17l-7.455 16.997H51.49l2.743-5.964-4.89-11.033h2.445l3.519 8.468h.06l3.459-8.468h2.385z" fill="#fff"/><path d="M20.478 10.922c0-.656-.06-1.372-.18-2.028h-9.362v3.817h5.367a4.819 4.819 0 01-1.968 3.041v2.505h3.22c1.85-1.73 2.923-4.294 2.923-7.335z" fill="#4285F4"/><path d="M10.936 20.643c2.684 0 4.95-.895 6.56-2.386l-3.22-2.504c-.895.596-2.028.954-3.4.954-2.624 0-4.771-1.73-5.606-4.115H2.05v2.564a9.97 9.97 0 008.886 5.487z" fill="#34A853"/><path d="M5.33 12.592a5.973 5.973 0 010-3.817V6.27H2.05a9.732 9.732 0 000 8.886l3.28-2.564z" fill="#FBBC04"/><path d="M10.936 4.72c1.431 0 2.803.536 3.817 1.49l2.803-2.803c-1.79-1.67-4.175-2.624-6.62-2.564C7.179.783 3.72 2.93 2.05 6.27l3.28 2.565c.775-2.386 2.982-4.116 5.606-4.116z" fill="#EA4335"/></g></g><defs><clipPath id="clip0_52_784"><path fill="#fff" transform="translate(.5)" d="M0 0h61v25H0z"/></clipPath></defs></svg>