<svg width="33" height="25" viewBox="0 0 33 25" fill="none" xmlns="http://www.w3.org/2000/svg"><g clip-path="url(#clip0_52_712)"><mask id="mask0_52_712" style="mask-type:luminance" maskUnits="userSpaceOnUse" x="0" y="0" width="32" height="25"><path d="M31.669.783H.657V24.64h31.012V.783z" fill="#fff"/></mask><g mask="url(#mask0_52_712)"><path d="M20.277 2.811h-8.29v14.91h8.29V2.81z" fill="#6C6BBD"/><path d="M12.524 10.266a9.442 9.442 0 013.638-7.455C14.552 1.559 12.524.783 10.318.783 5.07.783.776 5.018.776 10.266a9.468 9.468 0 009.482 9.482c2.207 0 4.234-.775 5.845-2.027-2.147-1.67-3.579-4.414-3.579-7.455z" fill="#EB001B"/><path d="M31.549 10.266a9.468 9.468 0 01-9.482 9.482 9.51 9.51 0 01-5.845-2.027 9.442 9.442 0 003.638-7.455c0-3.042-1.491-5.726-3.698-7.455C17.772 1.559 19.8.783 22.007.783c5.248 0 9.542 4.294 9.542 9.483z" fill="#0099DF"/><path d="M5.905 22.611v-.596H6.5v.298c.12-.239.298-.358.716-.358.358 0 .596.12.835.477.298-.417.656-.477.894-.477.358 0 1.014.12 1.014 1.014v1.61l-.716-.06-.06-1.49c0-.299-.119-.597-.476-.597-.299 0-.418.12-.537.298 0 .06-.06.18-.06.299v1.49h-.536v-1.55c-.06-.418-.239-.537-.537-.537-.239 0-.298.06-.477.18-.06.059-.12.297-.12.357v1.55h-.536v-1.908zm6.619 1.909v-.299c-.119.18-.298.358-.715.358-1.133 0-1.253-.954-1.253-1.312v-.06c0-.238.12-.656.358-.835.12-.119.298-.357.954-.357.537 0 .716.357.716.357v-.298h.537v2.505h-.597v-.06zm-.656-2.088c-.477 0-.775.358-.775.835 0 .596.596.835.775.835.239 0 .776-.12.776-.835-.06-.298-.239-.835-.776-.835zm2.207 1.014c.06.298.298.596.775.596.358 0 .537-.179.716-.238l.239.417a1.505 1.505 0 01-1.014.358c-.776 0-1.312-.537-1.312-1.312s.477-1.252 1.252-1.252c.835 0 1.252.715 1.193 1.49h-1.849v-.059zm1.312-.418c-.06-.298-.239-.596-.656-.596-.417 0-.596.298-.656.597h1.312zm1.193.835c.12.12.656.239.895.239.238 0 .536-.06.536-.298 0-.18-.656-.239-.715-.239-.418 0-.895-.238-.895-.715 0-.597.477-.835 1.074-.835.298 0 .715.06 1.013.238l-.238.358a2.48 2.48 0 00-.775-.179c-.299 0-.478.12-.478.298 0 .239.239.239.657.239.536 0 .894.358.894.775 0 .477-.358.835-1.133.835-.298 0-.656-.06-1.073-.298l.238-.418zm3.519-2.505v.776h.954v.417h-.895v1.193c.06.179.12.358.358.358.12 0 .418-.12.477-.12l.179.478c-.298.119-.477.179-.716.179-.238 0-.477-.06-.656-.18-.119-.119-.238-.297-.238-.655V22.55h-.477v-.477h.477V21.3h.537v.06zm1.61.716h.537v.298s.178-.298.596-.357h.477l-.179.536c-.12-.06-.239-.06-.358-.06-.537 0-.537.597-.537.657v1.431h-.536v-2.505zm4.473 1.253c0 .954-.656 1.312-1.312 1.312-.716 0-1.372-.358-1.372-1.312 0-.895.596-1.432 1.431-1.432.776 0 1.253.597 1.253 1.432zm-2.088 0c0 .477.299.775.716.775.477 0 .775-.298.775-.775 0-.418-.238-.895-.715-.895s-.776.358-.776.895z" fill="#071839"/></g></g><defs><clipPath id="clip0_52_712"><path fill="#fff" transform="translate(.5)" d="M0 0h32v25H0z"/></clipPath></defs></svg>