<svg width="33" height="25" viewBox="0 0 33 25" fill="none" xmlns="http://www.w3.org/2000/svg"><mask id="mask0_52_727" style="mask-type:luminance" maskUnits="userSpaceOnUse" x="0" y="0" width="32" height="25"><path d="M31.94.783H.928V24.64H31.94V.783z" fill="#fff"/></mask><g mask="url(#mask0_52_727)"><path d="M6.653 24.58v-1.611c0-.596-.358-1.014-1.014-1.014-.298 0-.656.12-.894.477a.952.952 0 00-.835-.477c-.239 0-.537.06-.716.358v-.298h-.596v2.505h.536v-1.432c0-.477.239-.656.597-.656.357 0 .536.239.536.656v1.432h.537v-1.432c0-.477.239-.656.597-.656.357 0 .536.239.536.656v1.432l.716.06zm8.23-2.506h-.894V21.3h-.537v.775h-.477v.477h.477v1.134c0 .596.238.894.894.894.239 0 .477-.06.716-.179l-.179-.477c-.179.12-.358.12-.477.12-.239 0-.358-.18-.358-.418v-1.133h.895v-.418h-.06zm4.712-.06a.809.809 0 00-.656.359v-.299h-.537v2.505h.537v-1.431c0-.418.178-.656.536-.656.12 0 .239 0 .358.06l.179-.537h-.418zm-7.097.24c-.239-.18-.656-.24-1.014-.24-.656 0-1.074.299-1.074.836 0 .417.298.656.895.715h.238c.299.06.477.12.477.239 0 .179-.178.298-.596.298-.417 0-.656-.12-.835-.238l-.238.417c.298.179.715.298 1.073.298.716 0 1.133-.358 1.133-.835s-.358-.715-.894-.775h-.239c-.239 0-.417-.06-.417-.239 0-.178.178-.298.477-.298.298 0 .656.12.775.18l.239-.359zm14.67-.24a.809.809 0 00-.655.359v-.299h-.537v2.505h.537v-1.431c0-.418.178-.656.536-.656.12 0 .239 0 .358.06l.18-.537h-.418zm-7.037 1.313c0 .775.537 1.312 1.372 1.312.358 0 .656-.06.895-.298l-.239-.477c-.179.178-.418.238-.656.238-.477 0-.775-.298-.775-.835 0-.477.298-.775.775-.835.238 0 .477.06.656.239l.239-.477a1.465 1.465 0 00-.895-.299c-.835.12-1.372.657-1.372 1.432zm5.07 0v-1.253h-.537v.299c-.18-.239-.477-.358-.776-.358-.715 0-1.252.537-1.252 1.312s.537 1.312 1.253 1.312c.357 0 .655-.12.775-.358v.298h.537v-1.252zm-2.028 0c0-.477.298-.835.775-.835.477 0 .775.358.775.835s-.298.835-.775.835c-.477-.06-.775-.418-.775-.835zm-6.62-1.312c-.716 0-1.253.537-1.253 1.312s.537 1.312 1.313 1.312c.357 0 .715-.12 1.014-.358l-.24-.417c-.178.178-.476.238-.715.238-.358 0-.715-.179-.775-.596h1.849v-.18c0-.774-.477-1.311-1.193-1.311zm0 .477c.358 0 .596.179.656.596h-1.312c.06-.358.298-.596.656-.596zm13.776.835V21.06h-.536v1.313c-.18-.239-.477-.358-.776-.358-.715 0-1.252.537-1.252 1.312s.537 1.312 1.252 1.312c.358 0 .656-.12.776-.358v.298h.537v-1.252zm-2.027 0c0-.477.298-.835.775-.835.477 0 .775.358.775.835s-.298.835-.775.835c-.477-.06-.775-.418-.775-.835zm-18.548 0v-1.253h-.537v.299c-.178-.239-.477-.358-.775-.358-.716 0-1.252.537-1.252 1.312s.536 1.312 1.252 1.312c.358 0 .656-.12.775-.358v.298h.537v-1.252zm-2.028 0c0-.477.299-.835.776-.835.477 0 .775.358.775.835s-.298.835-.775.835c-.477-.06-.776-.418-.776-.835z" fill="#071839"/><path d="M20.549 2.811h-8.29v14.91h8.29V2.81z" fill="#FF5F00"/><path d="M12.796 10.266a9.442 9.442 0 013.638-7.455C14.824 1.559 12.796.783 10.589.783c-5.248 0-9.542 4.235-9.542 9.483a9.468 9.468 0 009.482 9.482 9.51 9.51 0 005.845-2.027c-2.147-1.67-3.578-4.414-3.578-7.455z" fill="#EB001B"/><path d="M31.82 10.266a9.468 9.468 0 01-9.482 9.482c-2.207 0-4.234-.775-5.845-2.027a9.442 9.442 0 003.638-7.455c0-3.042-1.49-5.726-3.697-7.455 1.61-1.252 3.638-2.028 5.844-2.028 5.248 0 9.543 4.294 9.543 9.483z" fill="#F79E1B"/></g></svg>