<svg width="49" height="25" viewBox="0 0 49 25" fill="none" xmlns="http://www.w3.org/2000/svg"><g clip-path="url(#clip0_52_736)"><mask id="mask0_52_736" style="mask-type:luminance" maskUnits="userSpaceOnUse" x="0" y="0" width="49" height="25"><path d="M48.21.783H.5V24.64h47.71V.783z" fill="#fff"/></mask><g mask="url(#mask0_52_736)"><path d="M6.762 10.087c-.179 1.491-1.193 1.491-2.207 1.491H4.02l.417-2.803c0-.179.18-.298.298-.298h.239c.656 0 1.312 0 1.61.417.18.239.239.656.18 1.193zm-.417-3.936H2.647a.47.47 0 00-.477.477L.679 17.363c-.06.239.12.417.298.417h1.73a.47.47 0 00.477-.477l.417-2.862c.06-.358.298-.537.537-.537h1.193c2.445 0 3.817-1.312 4.174-3.996.18-1.133 0-2.087-.477-2.684-.536-.715-1.431-1.073-2.683-1.073zm8.587 7.753c-.178 1.133-.954 1.908-1.968 1.908-.536 0-.894-.179-1.192-.537-.239-.358-.358-.835-.299-1.431.18-1.133.955-1.909 1.968-1.909.478 0 .895.18 1.193.537.239.358.358.895.298 1.432zm2.446-3.877h-1.79c-.119 0-.298.12-.298.298l-.06.537-.119-.179c-.357-.596-1.252-.835-2.087-.835-1.968 0-3.638 1.67-3.936 4.056-.179 1.192.06 2.266.656 3.041.537.716 1.312 1.014 2.207 1.014 1.55 0 2.445-1.133 2.445-1.133l-.06.537c-.06.238.12.417.298.417h1.61a.47.47 0 00.478-.477l.954-6.859c0-.238-.12-.417-.298-.417zm9.362 0h-1.788c-.18 0-.358.06-.418.239l-2.445 4.055-1.014-3.936c-.06-.238-.298-.417-.477-.417h-1.73c-.238 0-.357.238-.297.477l1.967 6.5-1.848 2.923c-.12.238 0 .537.238.537h1.79c.178 0 .357-.06.417-.239l5.904-9.662c.12-.178 0-.477-.298-.477z" fill="#253B80"/><path d="M33.063 10.087c-.18 1.491-1.193 1.491-2.207 1.491h-.537l.418-2.803c0-.179.119-.298.298-.298h.238c.657 0 1.313 0 1.61.417.24.239.24.656.18 1.193zm-.418-3.936h-3.698a.47.47 0 00-.477.477l-1.49 10.735a.324.324 0 00.298.417h1.849c.178 0 .357-.119.357-.357l.418-3.042c.06-.298.238-.477.477-.477h1.193c2.445 0 3.817-1.312 4.174-3.996.18-1.133 0-2.087-.477-2.684-.477-.715-1.371-1.073-2.624-1.073zm8.588 7.753c-.179 1.133-.954 1.908-1.968 1.908-.477 0-.895-.179-1.193-.537-.238-.358-.358-.835-.298-1.431.179-1.133.954-1.909 1.968-1.909.477 0 .895.18 1.193.537.238.358.358.895.298 1.432zm2.445-3.877H41.89c-.12 0-.298.12-.298.298l-.06.537-.119-.179c-.358-.596-1.252-.835-2.087-.835-1.969 0-3.638 1.67-3.937 4.056-.178 1.192.06 2.266.657 3.041.536.716 1.311 1.014 2.206 1.014 1.55 0 2.445-1.133 2.445-1.133l-.06.537a.325.325 0 00.299.417h1.61a.47.47 0 00.477-.477l.954-6.859a.325.325 0 00-.298-.417zm2.088-3.577l-1.551 10.913c-.06.239.12.417.298.417h1.55a.47.47 0 00.478-.477l1.49-10.735c.06-.238-.059-.417-.297-.417h-1.67c-.18 0-.298.12-.298.298z" fill="#179BD7"/></g></g><defs><clipPath id="clip0_52_736"><path fill="#fff" transform="translate(.5)" d="M0 0h48v25H0z"/></clipPath></defs></svg>