<svg width="47" height="25" viewBox="0 0 47 25" fill="none" xmlns="http://www.w3.org/2000/svg"><g clip-path="url(#clip0_52_747)"><mask id="mask0_52_747" style="mask-type:luminance" maskUnits="userSpaceOnUse" x="1" y="0" width="46" height="25"><path d="M46.114.783H1.385V24.64h44.73V.783z" fill="#fff"/></mask><g mask="url(#mask0_52_747)"><mask id="mask1_52_747" style="mask-type:luminance" maskUnits="userSpaceOnUse" x="1" y="5" width="46" height="15"><path d="M14.566 5.435l-3.758 9.483-1.55-8.111c-.18-.895-.895-1.432-1.67-1.432H1.445l-.06.477c1.253.299 2.684.716 3.579 1.193.537.298.656.537.894 1.253L8.721 19.45h3.817l5.845-13.955-3.817-.06zm5.367 0L16.951 19.39h3.638l2.982-13.955h-3.638zm20.695 3.757L41.7 14.44h-2.98l1.909-5.248zm-.537-3.757c-.716 0-1.252.417-1.55 1.014L33.112 19.39h3.817l.775-2.087h4.652l.418 2.087h3.34L43.191 5.435H40.09zM24.525 9.789c0 2.027 1.79 3.16 3.161 3.816 1.431.716 1.909 1.134 1.849 1.73 0 .954-1.133 1.372-2.147 1.372-1.79.06-2.863-.477-3.698-.895l-.656 3.042c.835.358 2.386.715 3.996.715 3.817 0 6.262-1.848 6.262-4.77 0-3.698-5.07-3.877-5.07-5.547 0-.477.478-1.014 1.551-1.193.537-.06 1.968-.12 3.579.596l.656-2.981c-.895-.299-1.968-.597-3.4-.597-3.578.12-6.083 1.968-6.083 4.712z" fill="#fff"/></mask><g mask="url(#mask1_52_747)"><path d="M46.114 5.196H1.386V19.63h44.728V5.196z" fill="url(#paint0_linear_52_747)"/></g></g></g><defs><linearGradient id="paint0_linear_52_747" x1="1.383" y1="12.392" x2="46.114" y2="12.392" gradientUnits="userSpaceOnUse"><stop stop-color="#241F5D"/><stop offset="1" stop-color="#034EA1"/></linearGradient><clipPath id="clip0_52_747"><path fill="#fff" transform="translate(.5)" d="M0 0h46v25H0z"/></clipPath></defs></svg>