<svg width="98" height="41" viewBox="0 0 98 41" fill="none" xmlns="http://www.w3.org/2000/svg"><path d="M2.457 33V8.273h5.228V28.69h10.6V33H2.458zm41.05-12.364c0 2.697-.51 4.99-1.532 6.883-1.015 1.891-2.4 3.336-4.154 4.334-1.747.99-3.71 1.485-5.892 1.485-2.197 0-4.17-.499-5.916-1.497-1.747-.998-3.127-2.443-4.142-4.335-1.014-1.891-1.52-4.181-1.52-6.87 0-2.696.506-4.99 1.52-6.882 1.015-1.891 2.395-3.332 4.142-4.322 1.747-.998 3.719-1.497 5.916-1.497 2.181 0 4.145.499 5.892 1.497 1.755.99 3.14 2.43 4.154 4.322 1.022 1.892 1.533 4.186 1.533 6.882zm-5.3 0c0-1.746-.261-3.22-.784-4.419-.516-1.199-1.244-2.109-2.186-2.728-.942-.62-2.044-.93-3.308-.93-1.264 0-2.366.31-3.308.93-.942.62-1.674 1.529-2.198 2.728-.515 1.2-.772 2.673-.772 4.42 0 1.746.257 3.22.772 4.418.524 1.2 1.256 2.11 2.198 2.73.942.619 2.044.929 3.308.929 1.264 0 2.366-.31 3.308-.93.942-.62 1.67-1.53 2.186-2.729.523-1.199.785-2.672.785-4.419zm25.57-4.37a5.42 5.42 0 00-.712-1.558 4.396 4.396 0 00-1.123-1.159 4.814 4.814 0 00-1.498-.736 6.329 6.329 0 00-1.847-.254c-1.264 0-2.374.314-3.332.942-.95.628-1.69 1.541-2.222 2.74-.531 1.192-.797 2.649-.797 4.371 0 1.723.262 3.188.785 4.395.523 1.207 1.264 2.13 2.222 2.765.958.628 2.089.942 3.392.942 1.184 0 2.194-.21 3.031-.628.845-.427 1.49-1.026 1.932-1.8.45-.772.676-1.685.676-2.74l1.063.157h-6.375v-3.936h10.347v3.115c0 2.173-.459 4.04-1.377 5.602a9.381 9.381 0 01-3.79 3.598c-1.61.837-3.454 1.256-5.53 1.256-2.319 0-4.355-.511-6.11-1.533-1.755-1.03-3.123-2.492-4.105-4.383-.974-1.9-1.461-4.154-1.461-6.762 0-2.004.29-3.79.87-5.36.587-1.578 1.408-2.914 2.462-4.009a10.644 10.644 0 013.683-2.5c1.4-.57 2.918-.856 4.552-.856 1.4 0 2.704.205 3.912.615 1.207.403 2.278.974 3.211 1.715a9.284 9.284 0 012.306 2.644 8.984 8.984 0 011.147 3.357h-5.312zm32.192 4.37c0 2.697-.511 4.99-1.533 6.883-1.015 1.891-2.4 3.336-4.154 4.334-1.747.99-3.71 1.485-5.892 1.485-2.197 0-4.17-.499-5.916-1.497-1.747-.998-3.127-2.443-4.142-4.335-1.014-1.891-1.52-4.181-1.52-6.87 0-2.696.506-4.99 1.52-6.882 1.015-1.891 2.395-3.332 4.142-4.322 1.746-.998 3.719-1.497 5.916-1.497 2.181 0 4.145.499 5.892 1.497 1.755.99 3.14 2.43 4.154 4.322 1.022 1.892 1.533 4.186 1.533 6.882zm-5.3 0c0-1.746-.262-3.22-.785-4.419-.516-1.199-1.244-2.109-2.186-2.728-.941-.62-2.044-.93-3.308-.93-1.264 0-2.367.31-3.308.93-.942.62-1.674 1.529-2.198 2.728-.515 1.2-.772 2.673-.772 4.42 0 1.746.257 3.22.772 4.418.523 1.2 1.256 2.11 2.198 2.73.942.619 2.044.929 3.308.929 1.264 0 2.367-.31 3.308-.93.942-.62 1.67-1.53 2.186-2.729.523-1.199.784-2.672.784-4.419z" fill="#071839"/></svg>