<svg width="100" height="28" viewBox="0 0 100 28" fill="none" xmlns="http://www.w3.org/2000/svg"><path d="M.719 27V.818h5.535v21.618H17.48V27H.719zm43.466-13.09c0 2.854-.541 5.283-1.624 7.286-1.074 2.003-2.54 3.533-4.398 4.59-1.849 1.048-3.928 1.572-6.238 1.572-2.327 0-4.415-.529-6.264-1.585-1.85-1.057-3.311-2.587-4.385-4.59-1.074-2.003-1.611-4.427-1.611-7.274 0-2.855.537-5.284 1.61-7.287 1.075-2.003 2.536-3.528 4.386-4.577C27.51.99 29.598.46 31.925.46c2.31 0 4.39.529 6.238 1.585 1.859 1.049 3.324 2.574 4.398 4.577 1.083 2.003 1.624 4.432 1.624 7.287zm-5.612 0c0-1.85-.277-3.41-.831-4.68-.546-1.27-1.317-2.233-2.314-2.89-.997-.655-2.165-.983-3.503-.983s-2.506.328-3.503.984c-.997.656-1.773 1.62-2.327 2.89-.545 1.269-.818 2.829-.818 4.678 0 1.85.273 3.41.818 4.68.554 1.269 1.33 2.232 2.327 2.888.997.657 2.165.985 3.503.985s2.506-.328 3.503-.985c.997-.656 1.768-1.619 2.314-2.889.554-1.27.83-2.83.83-4.679zm27.073-4.63a5.74 5.74 0 00-.754-1.649 4.656 4.656 0 00-1.19-1.227 5.095 5.095 0 00-1.584-.78 6.699 6.699 0 00-1.956-.268c-1.338 0-2.514.332-3.529.997-1.005.664-1.79 1.632-2.352 2.902-.562 1.261-.844 2.804-.844 4.627 0 1.824.277 3.376.831 4.654.554 1.278 1.338 2.254 2.353 2.928 1.014.664 2.211.997 3.592.997 1.253 0 2.322-.222 3.209-.665.895-.452 1.576-1.087 2.045-1.905.477-.818.716-1.785.716-2.902l1.125.166h-6.75V12.99h10.956v3.298c0 2.301-.486 4.278-1.457 5.932a9.932 9.932 0 01-4.015 3.81c-1.704.886-3.656 1.329-5.855 1.329-2.454 0-4.61-.541-6.468-1.624-1.858-1.09-3.307-2.637-4.347-4.64-1.031-2.012-1.547-4.398-1.547-7.16 0-2.121.307-4.014.92-5.675.623-1.67 1.492-3.086 2.608-4.245a11.27 11.27 0 013.9-2.646c1.483-.605 3.09-.908 4.82-.908 1.482 0 2.863.218 4.141.652a11.035 11.035 0 013.4 1.816 9.829 9.829 0 012.443 2.8A9.511 9.511 0 0171.27 9.28h-5.625zm34.086 4.628c0 2.855-.541 5.284-1.624 7.287-1.074 2.003-2.54 3.533-4.398 4.59-1.849 1.048-3.929 1.572-6.238 1.572-2.327 0-4.415-.529-6.264-1.585-1.85-1.057-3.311-2.587-4.385-4.59-1.074-2.003-1.611-4.427-1.611-7.274 0-2.855.537-5.284 1.61-7.287 1.075-2.003 2.536-3.528 4.386-4.577C83.057.99 85.145.46 87.472.46c2.31 0 4.389.529 6.238 1.585 1.858 1.049 3.324 2.574 4.398 4.577 1.082 2.003 1.624 4.432 1.624 7.287zm-5.612 0c0-1.85-.278-3.409-.832-4.679-.545-1.27-1.316-2.233-2.313-2.89-.997-.655-2.165-.983-3.503-.983s-2.506.328-3.503.984c-.997.656-1.773 1.62-2.327 2.89-.545 1.269-.818 2.829-.818 4.678 0 1.85.273 3.41.818 4.68.554 1.269 1.33 2.232 2.327 2.888.997.657 2.165.985 3.503.985s2.506-.328 3.503-.985c.997-.656 1.768-1.619 2.314-2.889.553-1.27.83-2.83.83-4.679z" fill="#fff"/></svg>