<svg width="48" height="48" viewBox="0 0 48 48" fill="none" xmlns="http://www.w3.org/2000/svg"><path d="M24 2C11.847 2 2 11.847 2 24s9.847 22 22 22 22-9.847 22-22S36.153 2 24 2z" fill="#071839"/><path d="M24 .75C11.11.75.667 11.156.667 24S11.11 47.25 24 47.25c12.89 0 23.333-10.406 23.333-23.25S36.89.75 24 .75zM11.204 20.944c.31-3.947 3.03-6.694 5.269-6.694 2.24 0 4.958 2.747 5.269 6.694.066.806-1.016 1.115-1.402.422l-.894-1.594c-.724-1.284-1.806-2.025-2.964-2.025-1.157 0-2.239.74-2.963 2.025l-.894 1.594c-.405.693-1.487.375-1.42-.422zm23.597 11.512A14.037 14.037 0 0124 37.5c-4.187 0-8.12-1.837-10.801-5.044-1.27-1.528 1.035-3.44 2.314-1.922A11.01 11.01 0 0024 34.491a11.04 11.04 0 008.486-3.957c1.28-1.518 3.585.404 2.315 1.922zm.583-11.09l-.894-1.594c-.724-1.284-1.806-2.025-2.963-2.025-1.158 0-2.24.74-2.964 2.025l-.894 1.594c-.386.684-1.468.375-1.402-.422.31-3.947 3.03-6.694 5.27-6.694 2.238 0 4.958 2.747 5.268 6.694.056.806-1.035 1.115-1.42.422z" fill="#FFE02F"/></svg>