<svg viewBox="0 0 36 36" xmlns="http://www.w3.org/2000/svg" xmlns:xlink="http://www.w3.org/1999/xlink"><style>:root&gt;svg{display:none}:root&gt;svg:target{display:block}</style><svg fill="currentColor" viewBox="0 0 24 24" id="camera-reels-fill" xmlns="http://www.w3.org/2000/svg"><path d="M9.5 6.5a3.5 3.5 0 11-7 0 3.5 3.5 0 017 0z"/><path d="M13 10a3.5 3.5 0 110-7 3.5 3.5 0 010 7z"/><path d="M12.625 10h.563a2.28 2.28 0 011.483.546c.41.351.676.837.747 1.366l3.5-1.52a1.148 1.148 0 011.07.082 1.106 1.106 0 01.512.922v8.208c0 .183-.047.364-.137.524a1.11 1.11 0 01-.375.398 1.14 1.14 0 01-1.07.082l-3.5-1.52a2.186 2.186 0 01-.747 1.366 2.28 2.28 0 01-1.483.546H4.75a2.276 2.276 0 01-1.591-.644A2.175 2.175 0 012.5 18.8v-6.6c0-.583.237-1.143.659-1.556A2.276 2.276 0 014.75 10h7.875z"/></svg><svg fill="currentColor" viewBox="0 0 25 24" id="chat-square-like-bold" xmlns="http://www.w3.org/2000/svg"><path fill-rule="evenodd" clip-rule="evenodd" d="M13.587 21.388l.542-.916c.42-.71.63-1.066.968-1.262.338-.197.763-.204 1.613-.219 1.256-.021 2.043-.098 2.703-.372a5 5 0 002.706-2.706c.381-.918.381-2.083.381-4.413v-1c0-3.273 0-4.91-.737-6.112a5 5 0 00-1.65-1.651C18.91 2 17.273 2 14 2h-3c-3.273 0-4.91 0-6.112.737a5 5 0 00-1.651 1.65C2.5 5.59 2.5 7.228 2.5 10.5v1c0 2.33 0 3.495.38 4.413a5 5 0 002.707 2.706c.66.274 1.447.35 2.703.372.85.015 1.275.022 1.613.219.337.196.548.551.968 1.262l.542.916c.483.816 1.69.816 2.174 0zM8 9.715c0 1.752 2.163 3.615 3.49 4.593.454.335.681.502 1.01.502.329 0 .556-.167 1.01-.502 1.327-.978 3.49-2.84 3.49-4.593 0-2.677-2.475-3.677-4.5-1.609C10.475 6.038 8 7.038 8 9.715z"/></svg><svg fill="currentColor" viewBox="0 0 16 16" id="check-fill" xmlns="http://www.w3.org/2000/svg"><path d="M14.116 6.426c-.235-.246-.48-.5-.571-.723-.085-.204-.09-.543-.095-.871-.01-.61-.02-1.301-.5-1.782-.48-.48-1.172-.49-1.782-.5-.328-.005-.667-.01-.871-.095-.223-.092-.477-.336-.723-.571C9.143 1.469 8.653 1 8 1c-.652 0-1.142.47-1.574.884-.246.235-.5.48-.723.571-.203.085-.543.09-.871.095-.61.01-1.301.02-1.782.5-.48.48-.487 1.172-.5 1.782-.005.328-.01.667-.095.871-.092.223-.336.477-.571.723C1.469 6.857 1 7.347 1 8c0 .652.47 1.142.884 1.574.235.246.48.5.571.723.085.204.09.543.095.871.01.61.02 1.301.5 1.782.48.48 1.172.49 1.782.5.328.005.667.01.871.095.223.092.477.336.723.571.431.415.921.884 1.574.884.652 0 1.142-.47 1.574-.884.246-.235.5-.48.723-.571.204-.085.543-.09.871-.095.61-.01 1.301-.02 1.782-.5.48-.48.49-1.172.5-1.782.005-.328.01-.667.095-.871.092-.223.336-.477.571-.723C14.531 9.143 15 8.653 15 8c0-.652-.47-1.142-.884-1.574zm-3.262.428l-3.5 3.5a.502.502 0 01-.708 0l-1.5-1.5a.5.5 0 11.708-.708L7 9.293l3.146-3.147a.501.501 0 01.708.708z"/></svg><svg fill="currentColor" viewBox="0 0 25 25" id="check-round" xmlns="http://www.w3.org/2000/svg"><path fill-rule="evenodd" clip-rule="evenodd" d="M12.5 21.5a9 9 0 100-18 9 9 0 000 18zm4.768-11.36a1.001 1.001 0 10-1.536-1.28l-3.598 4.317c-.347.416-.542.647-.697.788l-.006.006-.007-.005c-.168-.127-.383-.339-.765-.722l-1.452-1.451a1 1 0 00-1.414 1.414l1.451 1.451.041.041c.327.327.64.641.933.862.327.248.756.48 1.305.456.55-.025.956-.296 1.26-.572.27-.247.555-.588.85-.943l.037-.044 3.598-4.318z"/></svg><svg fill="currentColor" viewBox="0 0 25 24" id="comment-fill" xmlns="http://www.w3.org/2000/svg"><path fill-rule="evenodd" clip-rule="evenodd" d="M3.5 10.4c0-2.24 0-3.36.436-4.216a4 4 0 011.748-1.748C6.54 4 7.66 4 9.9 4h5.2c2.24 0 3.36 0 4.216.436a4 4 0 011.748 1.748c.436.856.436 1.976.436 4.216v1.2c0 2.24 0 3.36-.436 4.216a4 4 0 01-1.748 1.748C18.46 18 17.34 18 15.1 18H7.914a1 1 0 00-.707.293l-2 2c-.63.63-1.707.184-1.707-.707V10.4zm6-2.4a1 1 0 000 2h6a1 1 0 100-2h-6zm0 4a1 1 0 000 2h3a1 1 0 000-2h-3z"/></svg><svg fill="currentColor" viewBox="0 0 36 36" id="fb" xmlns="http://www.w3.org/2000/svg"><g clip-path="url(#fclip0_151_3606)"><path d="M36 18c0-9.936-8.064-18-18-18S0 8.064 0 18c0 8.712 6.192 15.966 14.4 17.64V23.4h-3.6V18h3.6v-4.5c0-3.474 2.826-6.3 6.3-6.3h4.5v5.4h-3.6c-.99 0-1.8.81-1.8 1.8V18h5.4v5.4h-5.4v12.51C28.89 35.01 36 27.342 36 18z"/></g><defs><clipPath id="fclip0_151_3606"><path d="M0 0h36v36H0z"/></clipPath></defs></svg><svg fill="currentColor" viewBox="0 0 24 24" id="geo" xmlns="http://www.w3.org/2000/svg"><g clip-path="url(#gclip0_187_6019)"><path d="M12 24s9-8.529 9-15A9 9 0 103 9c0 6.471 9 15 9 15zm0-10.5a4.5 4.5 0 110-9 4.5 4.5 0 010 9z"/></g><defs><clipPath id="gclip0_187_6019"><path d="M0 0h24v24H0z"/></clipPath></defs></svg><svg fill="currentColor" viewBox="0 0 36 36" id="ig" xmlns="http://www.w3.org/2000/svg"><g clip-path="url(#hclip0_146_2724)"><path d="M23.625 18a5.625 5.625 0 11-11.25 0c.001-.321.032-.634.092-.938H10.5v7.495c0 .521.422.943.943.943H24.56a.943.943 0 00.941-.943v-7.494h-1.967c.06.303.09.616.092.937zM18 21.75a3.75 3.75 0 10-.002-7.5 3.75 3.75 0 00.002 7.5zm4.5-7.688h2.248a.563.563 0 00.564-.562v-2.248a.563.563 0 00-.564-.565H22.5a.563.563 0 00-.564.565V13.5c.002.31.255.563.564.563zM18 0a18 18 0 100 36 18 18 0 000-36zm9.375 25.292a2.09 2.09 0 01-2.083 2.083H10.708a2.09 2.09 0 01-2.083-2.083V10.708a2.09 2.09 0 012.083-2.083h14.584a2.09 2.09 0 012.083 2.083v14.584z"/></g><defs><clipPath id="hclip0_146_2724"><path d="M0 0h36v36H0z"/></clipPath></defs></svg><svg fill="currentColor" viewBox="0 0 24 24" id="like" xmlns="http://www.w3.org/2000/svg"><path d="M22 10.1c0-.477-.192-.935-.532-1.273a1.828 1.828 0 00-1.286-.527h-5.746l.873-4.113a1.49 1.49 0 00.027-.288c0-.369-.154-.711-.4-.954L13.973 2 7.99 7.922A1.787 1.787 0 007.455 9.2v9c0 .477.191.935.532 1.273.341.337.804.527 1.286.527h8.181c.755 0 1.4-.45 1.673-1.098l2.746-6.345c.081-.207.127-.423.127-.657v-1.8zM2 20h3.636V9.2H2V20z"/></svg><svg fill="currentColor" viewBox="0 0 24 24" id="lock-access" xmlns="http://www.w3.org/2000/svg"><path d="M21 2h-6c-.6 0-1 .4-1 1s.4 1 1 1h5v5c0 .6.4 1 1 1s1-.4 1-1V3c0-.6-.4-1-1-1zM3 10c.6 0 1-.4 1-1V4h5c.6 0 1-.4 1-1s-.4-1-1-1H3c-.6 0-1 .4-1 1v6c0 .6.4 1 1 1zm6 10H4v-5c0-.6-.4-1-1-1s-1 .4-1 1v6c0 .6.4 1 1 1h6c.6 0 1-.4 1-1s-.4-1-1-1zm12-6c-.6 0-1 .4-1 1v5h-5c-.6 0-1 .4-1 1s.4 1 1 1h6c.6 0 1-.4 1-1v-6c0-.6-.4-1-1-1zm-9-8c-1.7 0-3 1.3-3 3v1c-1.1 0-2 .9-2 2v4c0 1.1.9 2 2 2h6c1.1 0 2-.9 2-2v-4c0-1.1-.9-2-2-2V9c0-1.7-1.3-3-3-3zm1 4h-2V9c0-.6.4-1 1-1s1 .4 1 1v1z"/></svg><svg fill="currentColor" viewBox="0 0 24 24" id="phone" xmlns="http://www.w3.org/2000/svg"><path d="M20.487 17.14l-4.065-3.696a1 1 0 00-1.39.043l-2.394 2.461c-.576-.11-1.734-.471-2.926-1.66-1.192-1.193-1.553-2.354-1.66-2.926l2.46-2.394a1 1 0 00.042-1.391L6.86 3.513a1 1 0 00-1.39-.087L3.3 5.287a1 1 0 00-.29.649c-.016.25-.302 6.172 4.29 10.766C11.305 20.707 16.323 21 17.705 21c.202 0 .326-.006.36-.008a1 1 0 00.647-.291l1.86-2.171a.997.997 0 00-.085-1.39z"/></svg><svg fill="currentColor" viewBox="0 0 24 24" id="reviews-rounded" xmlns="http://www.w3.org/2000/svg"><path d="M6.077 17l-2.38 2.38a.388.388 0 01-.445.097c-.168-.064-.252-.187-.252-.37V4.617c0-.46.154-.845.463-1.153A1.572 1.572 0 014.615 3h14.77c.46 0 .844.154 1.152.463.308.309.462.693.463 1.153v10.769c0 .46-.154.844-.463 1.153a1.56 1.56 0 01-1.152.462H6.077z"/></svg><svg fill="currentColor" viewBox="0 0 24 24" id="solid-like" xmlns="http://www.w3.org/2000/svg"><path d="M7.5 4A5.5 5.5 0 002 9.5C2 15 8.5 20 12 21.163 15.5 20 22 15 22 9.5a5.5 5.5 0 00-10-3.163A5.494 5.494 0 007.5 4z"/></svg><svg fill="currentColor" viewBox="0 0 24 24" id="star" xmlns="http://www.w3.org/2000/svg"><path d="M5.825 21l1.625-7.025L2 9.25l7.2-.625L12 2l2.8 6.625 7.2.625-5.45 4.725L18.175 21 12 17.275 5.825 21z"/></svg><svg fill="currentColor" viewBox="0 0 36 36" id="twt" xmlns="http://www.w3.org/2000/svg"><g clip-path="url(#oclip0_61_710)"><path d="M18 0c9.951 0 18 8.049 18 18s-8.049 18-18 18S0 27.951 0 18 8.049 0 18 0zm-3.291 27.489c7.971 0 12.342-6.609 12.342-12.343v-.566a8.606 8.606 0 002.16-2.263 9.934 9.934 0 01-2.494.694c.9-.54 1.594-1.388 1.903-2.391a9.389 9.389 0 01-2.751 1.054 4.33 4.33 0 00-3.163-1.363 4.357 4.357 0 00-4.346 4.346c0 .334.026.669.129.977A12.327 12.327 0 019.54 11.11a4.478 4.478 0 00-.591 2.185 4.34 4.34 0 001.928 3.6 3.83 3.83 0 01-1.954-.54v.052a4.36 4.36 0 003.471 4.268c-.36.103-.745.155-1.131.155a4.45 4.45 0 01-.823-.078 4.317 4.317 0 004.037 3.009 8.79 8.79 0 01-5.4 1.851c-.36 0-.694 0-1.028-.051a12.176 12.176 0 006.634 1.954"/></g><defs><clipPath id="oclip0_61_710"><path d="M0 0h36v36H0z"/></clipPath></defs></svg><svg fill="currentColor" viewBox="0 0 24 24" id="user-star-fill" xmlns="http://www.w3.org/2000/svg"><path fill-rule="evenodd" clip-rule="evenodd" d="M11 2a5 5 0 100 10 5 5 0 000-10zm0 11c-2.395 0-4.575.694-6.178 1.672-.8.488-1.484 1.064-1.978 1.69C2.358 16.976 2 17.713 2 18.5c0 .845.411 1.511 1.003 1.986.56.45 1.299.748 2.084.956C6.665 21.859 8.771 22 11 22c.23 0 .459-.002.685-.005a1 1 0 00.89-1.428A6 6 0 0112 18c0-1.252.383-2.412 1.037-3.373a1 1 0 00-.72-1.557c-.43-.047-.87-.07-1.317-.07zm7.864.997a1 1 0 00-1.728 0l-.91 1.562-1.766.382a1 1 0 00-.534 1.644l1.204 1.348-.182 1.798a1 1 0 001.398 1.016l1.654-.73 1.654.73a1 1 0 001.398-1.016l-.182-1.799 1.204-1.347a1 1 0 00-.534-1.644l-1.766-.382-.91-1.562z"/></svg><svg fill="currentColor" viewBox="0 0 24 24" id="users" xmlns="http://www.w3.org/2000/svg"><path d="M9 13a4 4 0 100-8 4 4 0 000 8z"/><path fill-rule="evenodd" clip-rule="evenodd" d="M9 6a3 3 0 100 6 3 3 0 000-6zM4 9a5 5 0 1110 0A5 5 0 014 9z"/><path d="M9 13c-3.866 0-7 2.686-7 6h14c0-3.314-3.134-6-7-6z"/><path fill-rule="evenodd" clip-rule="evenodd" d="M1 19c0-4.005 3.732-7 8-7s8 2.995 8 7a1 1 0 01-1 1H2a1 1 0 01-1-1zm2.124-1h11.752c-.547-2.197-2.86-4-5.876-4-3.016 0-5.329 1.803-5.876 4z"/><path fill-rule="evenodd" clip-rule="evenodd" d="M13.374 4.537a4.75 4.75 0 014.544 8.21c2.792.99 4.832 3.361 4.832 6.253a.75.75 0 01-.75.75h-6a.75.75 0 010-1.5h5.185c-.429-2.47-2.944-4.5-6.185-4.5-.938 0-2.46-.331-3.543-1.468a.75.75 0 111.086-1.034c.712.747 1.782 1.002 2.457 1.002m0 0a3.249 3.249 0 10-2.438-5.4.75.75 0 01-1.124-.992 4.75 4.75 0 011.936-1.321"/></svg><svg fill="currentColor" viewBox="0 0 24 24" id="view-arrow-left" xmlns="http://www.w3.org/2000/svg"><path d="M12 4.5C7 4.5 2.73 7.61 1 12c1.73 4.39 6 7.5 11 7.5.36 0 .72 0 1.08-.05a5.847 5.847 0 01.16-2.61c-.41.1-.82.16-1.24.16-2.76 0-5-2.24-5-5s2.24-5 5-5 5 2.24 5 5c0 .29-.03.59-.08.88.66-.25 1.37-.38 2.08-.38 1.17 0 2.31.34 3.29 1 .27-.5.51-1 .71-1.5-1.73-4.39-6-7.5-11-7.5zM12 9c-1.66 0-3 1.34-3 3s1.34 3 3 3 3-1.34 3-3-1.34-3-3-3zm6 6v2h4v2h-4v2l-3-3 3-3z"/></svg><svg fill="currentColor" viewBox="0 0 24 24" id="view-filled" xmlns="http://www.w3.org/2000/svg"><path d="M12 15a3 3 0 100-6 3 3 0 000 6z"/><path d="M23.205 11.745A12.517 12.517 0 0012 3.75 12.518 12.518 0 00.795 11.745a.75.75 0 000 .51A12.517 12.517 0 0012 20.25a12.517 12.517 0 0011.205-7.995.75.75 0 000-.51zM12 16.875A4.875 4.875 0 1116.875 12 4.883 4.883 0 0112 16.875z"/></svg><svg fill="currentColor" viewBox="0 0 24 24" id="vote" xmlns="http://www.w3.org/2000/svg"><mask id="ta" maskUnits="userSpaceOnUse" x="0" y="0" width="24" height="24"><path d="M0 0h24v24H0z"/></mask><g mask="url(#ta)"><path d="M22.35 13.929h-2.3v2.428h.805c.19 0 .345.137.345.304v.607c0 .167-.154.303-.345.303H3.145c-.19 0-.345-.136-.345-.303v-.607c0-.167.155-.304.345-.304h.805V13.93h-2.3c-.636 0-1.15.542-1.15 1.214v3.643c0 .67.514 1.213 1.15 1.213h20.7c.636 0 1.15-.543 1.15-1.214v-3.643c0-.672-.514-1.214-1.15-1.214zm-3.45 2.428V4.226c0-.68-.521-1.226-1.16-1.226H6.263C5.621 3 5.1 3.55 5.1 4.226v12.131h13.8zM8.09 9.451l.916-.96a.369.369 0 01.547.004l1.484 1.578 3.421-3.582a.369.369 0 01.546.004l.91.968a.42.42 0 01-.004.576l-4.61 4.827a.369.369 0 01-.547-.004L8.09 10.028a.42.42 0 010-.577z"/></g></svg><svg fill="currentColor" viewBox="0 0 24 24" id="work-history-rounded" xmlns="http://www.w3.org/2000/svg"><path d="M10 7h4V5.615a.599.599 0 00-.173-.442.599.599 0 00-.442-.173h-2.77a.599.599 0 00-.442.173.599.599 0 00-.173.442V7zm8 15c-1.114 0-2.059-.388-2.835-1.164C14.388 20.059 14 19.113 14 18c0-1.113.388-2.058 1.165-2.835C15.942 14.388 16.887 14 18 14s2.059.388 2.836 1.165c.777.777 1.165 1.722 1.164 2.835-.001 1.113-.39 2.059-1.164 2.836-.775.777-1.72 1.165-2.836 1.164zM4.615 20c-.46 0-.844-.154-1.153-.462-.309-.308-.463-.693-.462-1.154V8.616c0-.46.154-.845.463-1.153A1.569 1.569 0 014.615 7H9V5.615c0-.46.154-.844.463-1.153A1.562 1.562 0 0110.616 4h2.769c.46 0 .844.154 1.153.462.309.308.463.692.462 1.153V7h4.385c.46 0 .844.154 1.152.463.308.309.462.693.463 1.153v3.15c0 .249-.1.435-.301.559a.681.681 0 01-.649.044A5.9 5.9 0 0018 12c-1.664 0-3.08.584-4.248 1.752C12.584 14.92 12 16.336 12 18c0 .172.005.351.014.538.01.187.037.366.082.537a.784.784 0 01-.147.646.676.676 0 01-.562.279H4.615zm13.77-2.161V15.5a.371.371 0 00-.112-.273.368.368 0 00-.273-.111.379.379 0 00-.384.384v2.333c0 .107.018.207.055.3.037.093.1.183.187.27l1.519 1.52a.396.396 0 00.264.121c.1.007.195-.034.282-.121a.385.385 0 00.13-.273.393.393 0 00-.13-.273l-1.538-1.538z"/></svg></svg>