<svg width="156" height="48" viewBox="0 0 156 48" fill="none" xmlns="http://www.w3.org/2000/svg"><g clip-path="url(#clip0_165_5287)"><mask id="mask0_165_5287" style="mask-type:luminance" maskUnits="userSpaceOnUse" x="0" y="0" width="156" height="48"><path d="M156 0H0v48h156V0z" fill="#fff"/></mask><g mask="url(#mask0_165_5287)"><path d="M70.94 21.222h-5.507l-1.835 10.31v-10.31h-.06v-5.656h-6.04C54.065 6.73 45.538.426 35.47.426c-10.067 0-18.534 6.303-21.969 15.14H7.343v15.966l-1.836-10.31H0l4.027 6.834L0 34.89h14.626c3.968 7.541 11.784 12.666 20.844 12.666 9.179 0 17.114-5.243 21.022-12.842L71 34.89l-4.086-6.834 4.026-6.834zm-58.243 4.27l2.065-.256c.134.72.518 1.08 1.151 1.08.29 0 .522-.075.703-.227.18-.15.27-.354.27-.61 0-.17-.049-.32-.146-.449a.86.86 0 00-.314-.273c-.111-.053-.303-.079-.576-.079h-.957v-1.65h.809c.433 0 .71-.077.832-.231a.747.747 0 00.187-.479.667.667 0 00-.232-.518c-.154-.139-.356-.208-.607-.208-.54 0-.87.3-.99.902l-1.91-.3c.174-.744.542-1.316 1.103-1.72.562-.401 1.227-.603 1.995-.603.864 0 1.558.202 2.085.607.524.406.787.948.787 1.622 0 .406-.11.76-.334 1.06a1.63 1.63 0 01-.851.61c.956.289 1.434.91 1.434 1.86 0 .758-.288 1.347-.866 1.766-.578.42-1.328.63-2.248.63-1.845 0-2.977-.845-3.39-2.535zm10.277 2.534c-.956 0-1.711-.377-2.267-1.128-.556-.752-.835-1.74-.835-2.964 0-1.256.285-2.247.855-2.973.57-.726 1.333-1.09 2.287-1.09 1 0 1.768.388 2.302 1.161.532.776.8 1.765.8 2.972 0 1.228-.287 2.205-.86 2.931-.575.726-1.336 1.09-2.282 1.09zM23 26.34c.332 0 .556-.212.668-.635.113-.421.169-1.001.169-1.733 0-1.009-.076-1.668-.224-1.976-.148-.309-.352-.463-.607-.463-.311 0-.525.203-.642.611-.118.408-.177.968-.177 1.681 0 .97.059 1.633.177 1.985.117.354.329.53.636.53zm7.062-.19l1.79-6.16h2.919l1.737 6.16h.866v3.418h-1.52l-.201-1.661h-4.724l-.202 1.661h-1.531V26.15h.866zm1.896 0h2.2l-.968-4.344h-.117l-1.115 4.344zm12.585-6.16v7.917H42.11v-3.074h-1.84v3.074h-2.433v-7.918h2.433v2.92h1.84v-2.92h2.433zm3.812 0v7.917h-2.433v-7.918h2.433zm1.375 7.917v-7.918h4.02c.835 0 1.444.21 1.828.632.382.421.574.902.574 1.442 0 .393-.11.75-.333 1.068-.22.319-.55.538-.987.659 1.023.247 1.533.863 1.533 1.846 0 .59-.18 1.113-.541 1.576-.363.463-1.136.695-2.321.695H49.73zm2.232-4.89h1.133c.285 0 .485-.072.602-.214a.71.71 0 00.176-.457c0-.44-.273-.659-.82-.659h-1.091v1.33zm0 3.133h1.193c.296 0 .514-.073.652-.22a.696.696 0 00.208-.492.746.746 0 00-.202-.505c-.134-.154-.381-.231-.74-.231h-1.111v1.448zm.325-15.12c-.414.354-.592.53-1.006.825h.533c.533.059.77.059 1.303.177.355.47.533.707.829 1.237a42.596 42.596 0 00-2.073-.412c-.178.706-.414 1.414-.651 2.12a6.125 6.125 0 00-.711-1.001c.178-.53.237-.766.415-1.296-.178-.06-.296-.06-.474-.118-.237.177-.355.295-.592.471-.237-.294-.415-.471-.651-.766l2.309-2.12c.296.353.474.53.77.883zm-29.49 21.327h25.227c-2.724 4.124-7.343 6.834-12.672 6.834-5.33 0-9.83-2.71-12.554-6.834zm5.39 8.13c0 .118 0 .176-.06.294 0 .06-.059.06-.059.119-.059.117-.118.176-.177.235-.06.059-.178.059-.296.059-.119 0-.297-.059-.415-.118a.906.906 0 01-.355-.236c-.06-.117-.119-.177-.119-.294 0-.118 0-.177.06-.295 0-.059.059-.059.059-.117 0-.118.118-.177.178-.236.059-.059.177-.059.295-.059.119 0 .238.059.415.118.118.059.237.117.355.235.06.118.119.177.119.295zM47.017 9.38c.06-.235.119-.53.356-.766 0-.058.059-.058.059-.117.177-.236.414-.413.651-.53.237-.118.533-.118.83-.06.296.06.592.236.887.472.297.235.474.53.652.766.119.235.178.53.178.707 0 .235-.12.412-.237.589l-.77-.766c.118-.118.177-.236.118-.413-.059-.176-.118-.294-.355-.47-.118-.118-.237-.178-.355-.178-.119 0-.237 0-.355.06-.119.058-.238.176-.415.353-.06.059-.06.059-.06.118-.118.177-.236.353-.295.471a.372.372 0 000 .354c.059.117.118.176.236.294.178.118.296.236.415.236.118 0 .237 0 .355-.118.297.295.474.412.71.707-.117.295-.354.354-.532.354-.237 0-.415 0-.71-.118-.238-.118-.474-.236-.711-.472a2.771 2.771 0 01-.533-.707c-.119-.235-.178-.53-.119-.766zm-.414-3.122a.821.821 0 01.237.177c-.119 1.178-.237 2.297-.474 3.417-.355-.236-.533-.354-.829-.59 0-.294 0-.412.06-.588-.416-.236-.652-.354-1.067-.59-.177.118-.237.236-.414.354-.356-.177-.533-.295-.889-.412.83-.766 1.777-1.474 2.725-2.122.236.118.414.236.651.354zm-5.27-2.298c.592.177.888.236 1.48.472.533.176.888.412 1.125.648.237.235.237.53.119.766a.708.708 0 01-.297.294c-.118.06-.295.118-.473.06.178.176.296.352.296.47.06.177 0 .295 0 .413-.296.648-1.125.53-1.658.353-.415-.176-.651-.235-1.066-.353-.118-.059-.178-.059-.355-.118.296-1.001.532-2.003.829-3.005zm-4.205.766c.533.06 1.126.118 1.658.177-.059.236-.059.353-.118.589-.533 0-1.066-.059-1.599-.118 0-.235 0-.353.06-.648zm10.955 10.84H22.858C25.58 11.502 30.2 8.791 35.47 8.791c5.27 0 9.89 2.71 12.613 6.775zM32.628 3.49l.888 1.178c.237-.589.355-.825.593-1.355.473-.058.71-.058 1.184-.058-.415.648-.83 1.354-1.184 2.061.059.472.059.649.059 1.12-.356 0-.593.059-.948.117-.06-.412-.06-.648-.118-1.119-.474-.648-1.066-1.178-1.6-1.767.474-.06.712-.118 1.126-.177zm-3.02.53c.592-.177 1.244-.294 1.836-.471.059.236.059.354.118.648l-1.777.53c.06.236.119.354.178.53.592-.176.889-.235 1.421-.353.06.236.06.353.119.589-.592.118-.83.177-1.421.354.059.235.118.353.177.589.533-.177 1.066-.295 1.599-.413.06.236.06.354.118.648-.651.118-1.243.295-1.894.472-.237.059-.356.118-.533.176-.356-1.001-.71-1.944-1.007-2.945.415-.118.651-.236 1.066-.354zM25.64 5.67c.711.295 1.363.648 2.014 1.06l-.71-1.65c.414-.176.591-.235 1.006-.412.355 1.002.77 1.945 1.125 2.946-.296.059-.474.118-.829.295a15.903 15.903 0 00-1.954-1.06c.296.53.533 1.06.829 1.59a5.938 5.938 0 00-.83.471 110.422 110.422 0 01-1.598-2.71c.415-.235.592-.353.947-.53zm-3.553 2.65c.178-.236.356-.53.652-.766.296-.236.592-.353.947-.412.296-.06.593 0 .83.059.236.117.473.294.65.589 0 .059.06.059.06.118.177.176.237.412.237.706 0 .295-.06.53-.178.766s-.355.472-.592.648c-.237.177-.533.354-.83.413a1.96 1.96 0 01-.828 0 1.178 1.178 0 01-.71-.471c0-.06-.06-.06-.06-.06-.237-.235-.355-.47-.355-.765-.06-.295 0-.59.177-.825zm-3.73 3.889c.118-.177.178-.295.355-.472.77.177 1.48.354 2.191.59-.355-.649-.651-1.356-.947-2.063.414-.471.651-.648 1.066-1.12.592.708 1.303 1.474 2.013 2.24l-.71.707-.415-.413c-.415-.471-.652-.707-1.066-1.178.296.707.651 1.473 1.007 2.18-.178.177-.237.294-.415.53-.77-.236-1.54-.413-2.31-.53.534.353.83.53 1.363.825.177.117.296.235.473.353l-.592.884c-.888-.59-1.776-1.12-2.605-1.709.236-.353.355-.53.592-.824zm1.006 24.743c.534-.412 1.007-.884 1.54-1.296-.237-.177-.414-.294-.651-.53a2.21 2.21 0 00.414-.354c.533.413.83.59 1.362.943 0 0 0 .059.06.059-.711.648-1.362 1.296-2.073 1.885-.296-.236-.414-.412-.652-.707zm3.613 2.828a1.01 1.01 0 01-.592 0c-.237-.059-.415-.177-.652-.354-.177-.176-.355-.353-.474-.589-.118-.176-.118-.412-.059-.589.06-.176.178-.412.356-.589a2.28 2.28 0 00.355-.412c.177-.177.355-.295.533-.354.177-.059.415-.059.592 0 .178.059.355.177.533.295.178.176.296.294.414.471.06.177.119.353.06.59 0 .176-.119.412-.237.588a2.22 2.22 0 01-.355.413c-.12.294-.297.471-.474.53zm3.138.707a1.75 1.75 0 00-.237.471c-.059.177-.236.354-.414.471-.178.118-.355.118-.592.118s-.415-.117-.652-.235a1.391 1.391 0 01-.533-.472 1.133 1.133 0 01-.177-.589c0-.177.118-.412.237-.59.118-.175.177-.235.296-.47.118-.177.296-.354.473-.413.178-.059.356-.117.593-.117.177 0 .414.117.592.235.177.118.355.236.414.413a.945.945 0 01.178.53c0 .177-.06.412-.178.648zm3.02 2.297c0 .06 0 .06-.059.118a.815.815 0 01-.178.236c-.059.06-.177.118-.355.118-.118 0-.296 0-.474-.059a.956.956 0 01-.414-.236c-.119-.117-.178-.177-.178-.294v-.295c0-.059.06-.059.06-.118.118-.118.177-.176.295-.235.06-.06.178-.06.356-.118.118 0 .296 0 .414.059.178.059.296.117.356.236a.324.324 0 01.177.294v.294zm-2.31-.353l-.355-.353c.83-.413 1.659-.825 2.428-1.355l.296.294a19.28 19.28 0 01-2.368 1.414zm4.916.825c.059.118.236.236.533.294h.296c.059 0 .118 0 .177-.058 0-.177 0-.236.06-.354-.237 0-.356-.059-.533-.059.059-.177.059-.295.059-.53.533.059.829.118 1.421.176-.06.472-.06.708-.118 1.179-.06.177-.178.236-.356.294-.118.06-.296.06-.533.06-.177 0-.414 0-.65-.06-.356-.058-.593-.176-.83-.294s-.355-.354-.414-.59a1.667 1.667 0 010-.765c0-.06 0-.06.059-.118.059-.295.177-.53.355-.707.178-.176.355-.294.592-.353.237-.06.474-.06.71-.06.415.06.711.177.89.413.177.177.295.472.295.766-.355 0-.474-.059-.829-.059 0-.118-.06-.235-.118-.353-.06-.06-.178-.118-.356-.177-.177 0-.355 0-.474.118a1.135 1.135 0 00-.296.53v.118c-.059.235-.059.47.06.589zm3.967 1.178v-.236c-.059.06-.177.177-.296.177-.118.059-.237.059-.414.059-.296 0-.474-.059-.652-.236-.177-.117-.236-.353-.177-.589.059-.53.059-.825.118-1.355.296 0 .474 0 .829.06 0 .53 0 .824-.06 1.354 0 .06 0 .118.06.177s.118.059.237.059c.178 0 .296-.059.355-.118v-1.414h.71c.06.707.06 1.414.12 2.062h-.83zm3.612-.294c-.355.058-.533.117-.888.117-.06-.059-.06-.117-.118-.176a.82.82 0 01-.237.176c-.119.06-.237.06-.355.118-.178 0-.296 0-.474-.059l-.355-.176a.45.45 0 01-.119-.295c0-.236.06-.412.296-.53.178-.118.474-.236.888-.295h.237v-.118c0-.059-.059-.118-.059-.177-.06-.058-.118-.058-.237-.058-.06 0-.118 0-.178.058-.059.06-.059.06-.059.177-.355.06-.474.06-.829.06 0-.119 0-.237.119-.354.059-.118.177-.177.355-.295.178-.059.355-.117.533-.117h.533c.177 0 .296.117.414.176a.533.533 0 01.178.412c.06.295.06.472.118.825.06.177.06.236.119.295 0 .059.059.118.118.236 0-.06 0-.06 0 0zm1.48-1.827c-.058 0-.177 0-.177.06a.454.454 0 00-.296.117c-.06.06-.118.118-.118.177.118.47.177.766.296 1.237-.356.059-.533.118-.889.177-.118-.707-.296-1.356-.414-2.062.296-.06.414-.06.71-.177.06.118.06.177.12.236.058-.118.117-.177.177-.295.059-.06.177-.118.296-.177.059.06.118.06.177.06.06.235.119.412.119.647zm2.192.766c-.06 0-.06-.059-.119-.118-.059.06-.118.177-.177.236-.06.059-.178.118-.356.177-.177.059-.296.059-.473.059-.178 0-.296-.06-.415-.118-.118-.06-.177-.177-.237-.295-.06-.236 0-.412.119-.589.177-.177.414-.295.829-.471.059 0 .118-.06.236-.06 0-.058 0-.058-.059-.117 0-.06-.059-.118-.118-.177h-.237c-.06 0-.118.06-.178.118-.059.06 0 .118 0 .177a3.39 3.39 0 01-.829.235c-.059-.117 0-.235 0-.412.06-.118.178-.236.296-.353.119-.118.297-.177.533-.295.178-.059.356-.118.533-.118.178 0 .297 0 .415.118a.61.61 0 01.296.353l.296.767c.237.235.296.353.296.412.06.059.118.117.178.117-.355.118-.474.236-.83.354zm2.546-1.06a19.29 19.29 0 00-.592-1.12c-.06-.059-.06-.117-.118-.117h-.119c-.06 0-.118.058-.178.058a.463.463 0 00-.237.236c.237.53.415.766.652 1.296l-.83.412a46.025 46.025 0 01-.828-1.884 4.01 4.01 0 00.71-.354c.06.059.06.117.119.177l.177-.354c.06-.118.178-.177.297-.236.236-.176.414-.235.591-.176.178.059.356.176.534.47.296.473.414.649.65 1.12-.295.177-.473.295-.828.472zm2.132-1.296a1.105 1.105 0 01-.652.235c-.177 0-.355-.118-.474-.294-.177-.354-.295-.472-.532-.825a.82.82 0 00-.237.177c-.119-.177-.178-.236-.237-.413a.808.808 0 00.237-.177c-.119-.176-.178-.294-.296-.47.296-.178.414-.237.651-.472.119.177.178.235.296.412.119-.118.178-.118.356-.235.118.176.177.235.296.412-.119.118-.178.118-.356.236.178.294.296.412.474.707 0 .058.059.058.059.058h.119c.059 0 .059-.058.177-.058.06 0 .119 0 .178-.06.118.177.178.236.296.413l-.355.354zm2.31-2.062l-.179.353c-.059.118-.177.236-.355.353-.236.177-.474.354-.71.413-.237.06-.415.06-.652 0-.177-.059-.355-.177-.414-.294 0 0 0-.06-.06-.06a2.074 2.074 0 01-.236-.53c0-.177 0-.353.118-.589s.237-.354.474-.53c.177-.177.355-.295.533-.354a.822.822 0 01.533 0c.178.06.355.118.474.295.059.118.118.118.177.235a21.23 21.23 0 01-1.244 1.12c.06.059.178.059.297.059.118 0 .236-.059.355-.177.119-.059.178-.177.237-.294.06-.118.118-.177.118-.295h.593c0 .06 0 .177-.06.295zm1.953-2.18c0 .118-.059.235-.178.412a1.793 1.793 0 01-.295.413c-.237.235-.415.412-.652.53-.236.117-.414.117-.651.117-.178 0-.356-.117-.474-.235V37.6a1.285 1.285 0 01-.296-.471c-.06-.177-.06-.353 0-.59a2.45 2.45 0 01.355-.648c.178-.176.356-.353.533-.412.178-.117.356-.117.533-.117.178 0 .356.058.533.235.178.059.178.118.296.177-.355.471-.71.883-1.125 1.296.119.059.178.059.296 0 .119-.059.237-.118.296-.236.06-.118.178-.177.178-.294.06-.118.06-.236.06-.295.236 0 .354-.059.591-.059v.295z" fill="#1D3E7C"/><path d="M25.463 39.309c-.119-.06-.178-.06-.296-.06-.119.06-.178.119-.296.295-.178.236-.237.354-.415.59-.118.176-.177.294-.118.412.06.118.06.177.178.235.118.06.236.06.296.06.118-.06.177-.118.296-.295.118-.236.236-.353.355-.59.118-.176.177-.294.177-.412 0-.117-.059-.176-.177-.235zM42.458 6.906c.119 0 .178-.059.178-.177.059-.236 0-.353-.297-.471-.236-.059-.355-.118-.592-.177l-.177.59c.236.058.296.117.533.176.177.059.296.059.355.059zm.355-1.178c.119 0 .178-.06.237-.177.06-.118 0-.236-.059-.295-.059-.058-.237-.117-.414-.176-.178-.06-.237-.118-.415-.177-.06.236-.118.353-.178.589.178.06.237.06.415.118.118.118.296.177.414.118zM22.917 37.6c-.119 0-.237.118-.356.236-.177.235-.296.294-.473.53a.646.646 0 00-.178.353c0 .118.06.177.178.295.118.059.177.118.296.118.118 0 .237-.118.355-.236.178-.235.296-.353.474-.53.06-.177.118-.295.118-.412 0-.118-.059-.177-.118-.295-.118-.059-.178-.118-.296-.059zM45.892 6.906c-.355.236-.473.412-.829.648.296.177.415.236.652.412.06-.412.118-.648.177-1.06zM27.535 40.192c-.059 0-.118-.059-.177 0l-.119.118c0 .059-.059.059-.059.118v.177c0 .058.06.117.119.117s.118.06.177 0c.06 0 .06-.059.119-.117 0-.06.059-.06.059-.118v-.177c0-.06-.06-.06-.119-.118zm.889 2.121h-.178c-.06 0-.06.06-.118.118 0 .059 0 .059-.06.118 0 .059 0 .118.06.177.059.059.059.117.118.117.118.06.178.06.178 0 .059 0 .059-.058.118-.117 0-.06 0-.06.059-.118v-.177c0-.059-.06-.059-.177-.118zm-5.33-32.991c.178.235.355.353.533.412.178.059.355 0 .592-.118.178-.118.296-.294.296-.471s-.059-.413-.236-.648c0-.06-.06-.06-.06-.118-.178-.353-.355-.471-.533-.53-.177-.06-.414 0-.592.177-.414.294-.414.706-.059 1.178 0 .059.06.059.06.118zM48.676 38.13c-.06-.059-.237-.059-.415.118-.118.06-.118.177-.178.236 0 .06 0 .177.06.235.237-.176.355-.294.533-.588.059.059.059.059 0 0zm1.954-2.003c-.06-.059-.237-.059-.415.177-.06.118-.118.177-.118.236s0 .176.059.235c.237-.235.296-.353.533-.589l-.06-.059zm-8.29 6.245a.816.816 0 00-.238.177c-.059.059-.059.118 0 .236 0 .058.06.058.12.058h.177c.059 0 .118-.058.177-.117.06-.06.06-.118.119-.118-.06-.118-.06-.177-.119-.295-.118.06-.118.06-.236.06zm-4.442 1.002c-.118 0-.236.059-.236.117-.06.06-.06.118-.06.177 0 .06 0 .06.06.118h.177c.119.06.178.06.237 0 .06-.059.119-.059.119-.118 0-.118 0-.176-.06-.294h-.237zm2.606-7.482l.829-.472.828.472-.236-.943.71-.648-.947-.118-.415-.883-.296.883-.947.118.71.648-.236.943zm0-21.209l.829-.472.828.472-.236-.943.71-.648-.947-.118-.415-.883-.296.883-.947.118.71.648-.236.943zm-10.422 19.5l-.415-.883-.296.883-.947.118.71.648-.236.943.829-.472.828.472-.236-.943.71-.648-.947-.118zm-1.184-19.5l.829-.472.828.472-.236-.943.71-.648-.947-.118-.415-.883-.296.883-.947.118.71.648-.236.943zm6.572 21.916l1.244.648-.296-1.356 1.066-.942-1.422-.118-.592-1.296-.592 1.355-1.421.118 1.066.942-.296 1.355 1.243-.706zm-1.243-22.093l1.243-.707 1.244.648-.296-1.355 1.066-.942-1.422-.118-.592-1.296-.592 1.354-1.421.118 1.066.943-.296 1.355z" fill="#1D3E7C"/><path d="M81.168 8h5.809v1.45h-4.073v7.125h-1.736V8zm7.757 4.276l-1.485-.264c.167-.607.457-1.056.866-1.347.41-.292 1.018-.437 1.825-.437.732 0 1.279.085 1.638.259.358.174.611.393.757.661.146.267.22.756.22 1.471l-.025 1.916c0 .545.026.948.078 1.208.052.26.15.537.294.832h-1.629a5.973 5.973 0 01-.158-.479 2.208 2.208 0 00-.057-.191c-.28.275-.58.48-.899.619a2.55 2.55 0 01-1.02.207c-.637 0-1.14-.174-1.507-.521-.367-.345-.55-.784-.55-1.315 0-.35.083-.663.25-.938.168-.274.402-.486.705-.631.302-.146.737-.274 1.306-.383.766-.144 1.3-.28 1.595-.404v-.166c0-.32-.078-.547-.234-.684-.158-.136-.453-.204-.886-.204-.294 0-.521.058-.685.176-.165.116-.297.321-.4.615zm2.204 1.329c-.21.07-.543.154-1 .252-.456.097-.755.193-.895.285-.213.154-.321.346-.321.579 0 .231.086.43.258.597a.897.897 0 00.654.251c.296 0 .579-.098.848-.291.198-.15.33-.33.392-.545.042-.14.064-.407.064-.8v-.328zm3.187-3.246h1.533v.913a2.28 2.28 0 011.937-1.044c.72 0 1.333.283 1.836.85.503.565.755 1.355.755 2.365 0 1.04-.254 1.847-.76 2.424-.508.576-1.123.864-1.845.864-.344 0-.655-.068-.935-.206-.277-.135-.572-.369-.88-.7v3.11h-1.64v-8.576zm1.617 3.012c0 .701.138 1.218.415 1.553.276.334.613.502 1.009.502.38 0 .698-.154.952-.462.253-.307.379-.81.379-1.51 0-.655-.13-1.14-.391-1.458-.26-.317-.583-.475-.968-.475-.402 0-.735.156-.998.467-.266.312-.398.773-.398 1.383zm6.969-1.095l-1.485-.264c.167-.607.457-1.056.866-1.347.409-.292 1.018-.437 1.825-.437.732 0 1.279.085 1.638.259.358.174.611.393.757.661.146.267.22.756.22 1.471l-.024 1.916c0 .545.026.948.077 1.208.053.26.15.537.294.832h-1.629a6.109 6.109 0 01-.158-.479 2.584 2.584 0 00-.057-.191 2.97 2.97 0 01-.899.619 2.548 2.548 0 01-1.02.207c-.637 0-1.14-.174-1.507-.521-.367-.345-.551-.784-.551-1.315 0-.35.084-.663.252-.938a1.63 1.63 0 01.704-.631c.302-.146.737-.274 1.306-.383.766-.144 1.299-.28 1.595-.404v-.166c0-.32-.078-.547-.234-.684-.158-.136-.453-.204-.886-.204-.294 0-.521.058-.685.176-.165.116-.297.321-.399.615zm2.204 1.329c-.21.07-.543.154-1 .252-.456.097-.755.193-.894.285-.214.154-.322.346-.322.579 0 .231.086.43.258.597a.896.896 0 00.654.251c.296 0 .579-.098.848-.291.198-.15.33-.33.392-.545.042-.14.064-.407.064-.8v-.328zm3.163-3.246h1.641v2.276h2.372v-2.276h1.641v6.216h-1.641v-2.61h-2.372v2.61h-1.641V10.36zm6.564 0h5.617v1.33h-1.988v4.886h-1.641V11.69h-1.988v-1.33zm6.607-.838V8h1.641v1.52h-1.641zm0 7.054V10.36h1.641v6.216h-1.641zm8.657-6.216v6.216h-1.64V14h-.152c-.356 0-.617.046-.783.138-.168.092-.351.286-.555.58l-.099.123-1.084 1.734h-1.915l1.178-1.798c.335-.515.639-.81.91-.888-.459-.028-.832-.202-1.12-.525-.285-.322-.429-.733-.429-1.234 0-.403.096-.747.286-1.032a1.41 1.41 0 01.756-.583c.314-.104.783-.156 1.404-.156h3.243zm-1.64 1.054h-1.18c-.435 0-.739.062-.917.186-.175.124-.263.327-.263.613 0 .287.1.493.299.619.2.126.528.187.981.187h1.08v-1.605zM81 22.74h5.522v6.217H84.88V24.07h-2.24v4.887H81V22.74zm6.923 3.033c0-.547.133-1.076.403-1.587a2.77 2.77 0 011.144-1.172 3.381 3.381 0 011.65-.405c.94 0 1.71.305 2.31.916.601.613.9 1.383.9 2.318 0 .942-.303 1.722-.908 2.341-.606.619-1.37.928-2.29.928-.568 0-1.111-.13-1.628-.387a2.65 2.65 0 01-1.178-1.134c-.27-.497-.403-1.104-.403-1.818zm1.689.088c0 .616.145 1.09.437 1.417.293.33.652.493 1.082.493.427 0 .786-.164 1.076-.493.289-.328.435-.805.435-1.43 0-.608-.146-1.077-.435-1.405a1.375 1.375 0 00-1.076-.493c-.43 0-.789.164-1.082.493-.292.328-.437.8-.437 1.418zm6.022-3.12h3.601c.739 0 1.29.133 1.657.403s.551.677.551 1.22c0 .347-.1.65-.302.908a1.433 1.433 0 01-.756.515c.427.106.747.301.958.59.21.29.316.606.316.949 0 .483-.178.876-.533 1.178-.356.301-.881.453-1.575.453h-3.917V22.74zm1.641 2.587h1.066c.515 0 .886-.064 1.116-.194.23-.13.345-.333.345-.61 0-.264-.108-.45-.321-.562-.214-.111-.593-.167-1.14-.167h-1.066v1.533zm0 2.574h1.305c.471 0 .815-.055 1.03-.17.216-.113.324-.314.324-.608 0-.305-.124-.515-.372-.629-.245-.115-.726-.173-1.44-.173h-.847v1.58zm9.144-.91l1.641.276c-.209.6-.543 1.058-.996 1.373-.455.314-1.024.471-1.705.471-1.079 0-1.88-.353-2.397-1.06-.409-.566-.615-1.281-.615-2.145 0-1.03.27-1.839.807-2.422.536-.585 1.217-.876 2.04-.876.922 0 1.65.305 2.186.916.533.61.788 1.547.764 2.809h-4.108c.012.487.143.866.397 1.138.252.271.567.407.942.407.258 0 .474-.07.647-.21.176-.14.308-.365.397-.677zm.096-1.664c-.012-.477-.134-.84-.367-1.088a1.123 1.123 0 00-.852-.374c-.358 0-.653.132-.887.394-.233.261-.347.619-.343 1.068h2.449zm2.924-2.588h1.533v.913c.2-.312.468-.563.807-.757a2.26 2.26 0 011.13-.287c.72 0 1.333.283 1.836.85.503.565.755 1.356.755 2.366 0 1.04-.254 1.846-.761 2.423s-1.122.864-1.844.864a2.09 2.09 0 01-.935-.205c-.277-.136-.572-.37-.88-.701v3.11h-1.641V22.74zm1.617 3.013c0 .7.138 1.218.415 1.553.276.333.613.5 1.009.5.381 0 .698-.153.952-.46.253-.308.379-.81.379-1.511 0-.655-.13-1.14-.391-1.458-.26-.317-.583-.475-.968-.475a1.25 1.25 0 00-.998.467c-.266.312-.398.773-.398 1.384zm5.675-3.012h1.641v2.275h2.372V22.74h1.641v6.217h-1.641v-2.611h-2.372v2.61h-1.641V22.74zm10.899 4.251l1.641.276c-.209.6-.543 1.058-.996 1.373-.455.314-1.024.471-1.704.471-1.08 0-1.881-.353-2.398-1.06-.409-.566-.615-1.281-.615-2.145 0-1.03.27-1.839.807-2.422.536-.585 1.217-.876 2.04-.876.922 0 1.65.305 2.186.916.533.61.788 1.547.764 2.809h-4.108c.012.487.144.866.397 1.138.252.271.567.407.942.407.258 0 .474-.07.647-.21.176-.14.308-.365.397-.677zm.096-1.664c-.012-.477-.133-.84-.367-1.088a1.123 1.123 0 00-.852-.374c-.358 0-.653.132-.887.394-.233.261-.347.619-.343 1.068h2.449zm2.9-2.588h1.641v2.276h2.372V22.74h1.641v6.217h-1.641v-2.611h-2.372v2.61h-1.641V22.74zm7.234 0h1.641v2.276h2.372V22.74h1.641v6.217h-1.641v-2.611h-2.372v2.61h-1.641V22.74zm12.636 0v6.217h-1.641V26.38h-.152c-.355 0-.616.045-.782.137-.168.092-.351.286-.555.581l-.1.122-1.084 1.735h-1.914l1.178-1.799c.335-.515.639-.81.91-.888-.459-.028-.832-.202-1.12-.525-.285-.321-.429-.733-.429-1.234 0-.403.096-.746.285-1.032.19-.285.442-.479.757-.583.313-.103.782-.155 1.403-.155h3.244zm-1.641 1.055h-1.18c-.435 0-.738.062-.916.185-.176.124-.263.328-.263.613 0 .287.1.493.299.619.2.126.527.187.981.187h1.079v-1.604zM81 35.503h4.204v1.33h-2.563v4.886H81v-6.216zm5.012 0h1.533v.913a2.28 2.28 0 011.937-1.044c.72 0 1.333.283 1.836.85.503.565.755 1.355.755 2.365 0 1.04-.254 1.847-.76 2.424-.508.576-1.123.864-1.845.864-.344 0-.655-.068-.935-.206-.277-.135-.572-.369-.88-.7v3.11h-1.64v-8.576zm1.617 3.013c0 .7.138 1.217.415 1.553.276.333.613.5 1.009.5.38 0 .698-.153.952-.46.253-.308.379-.81.379-1.512 0-.654-.13-1.14-.391-1.457-.26-.317-.583-.475-.968-.475-.402 0-.735.156-.999.467-.265.312-.397.773-.397 1.384zm5.364.02c0-.547.134-1.077.403-1.587a2.77 2.77 0 011.144-1.172 3.381 3.381 0 011.651-.405c.94 0 1.708.305 2.31.916.6.613.9 1.383.9 2.317 0 .943-.304 1.723-.909 2.342-.606.618-1.369.928-2.29.928-.568 0-1.111-.13-1.628-.387a2.65 2.65 0 01-1.178-1.134c-.27-.497-.403-1.104-.403-1.819zm1.689.087c0 .617.145 1.09.437 1.418.293.33.653.493 1.082.493.427 0 .786-.164 1.076-.493.289-.328.435-.805.435-1.43 0-.608-.146-1.078-.435-1.405a1.375 1.375 0 00-1.076-.493c-.43 0-.788.164-1.082.493-.292.327-.437.8-.437 1.417zm5.962-3.12h1.51v4.887h1.916v-4.887h1.509v4.887h1.916v-4.887h1.509v6.216h-8.36v-6.216zm13.624 4.252l1.641.276c-.21.6-.543 1.058-.996 1.373-.455.313-1.024.471-1.705.471-1.079 0-1.88-.353-2.397-1.06-.409-.567-.615-1.281-.615-2.146 0-1.03.27-1.838.807-2.421.536-.585 1.217-.876 2.039-.876.923 0 1.651.305 2.187.916.532.61.788 1.547.764 2.808h-4.108c.012.488.143.867.397 1.138.252.272.567.407.942.407.258 0 .473-.07.647-.21.176-.139.308-.364.397-.676zm.096-1.665c-.012-.477-.134-.84-.367-1.088a1.123 1.123 0 00-.852-.373c-.358 0-.653.132-.887.394-.233.261-.347.618-.343 1.067h2.449zm2.924-2.587h1.581v3.907l2.527-3.907h1.617v6.216h-1.581v-3.962l-2.563 3.962h-1.581v-6.216zM121.205 33h.802c-.046.53-.233.946-.559 1.248-.325.301-.746.453-1.263.453-.519 0-.94-.152-1.266-.453-.325-.302-.513-.719-.559-1.248h.803c.028.276.124.485.291.627.168.142.411.212.731.212.317 0 .561-.07.728-.212.168-.142.264-.352.292-.627z" fill="#223F7B"/></g></g><defs><clipPath id="clip0_165_5287"><path fill="#fff" d="M0 0h156v48H0z"/></clipPath></defs></svg>