<svg width="86" height="44" viewBox="0 0 86 44" fill="none" xmlns="http://www.w3.org/2000/svg"><g clip-path="url(#clip0_165_5326)"><mask id="mask0_165_5326" style="mask-type:luminance" maskUnits="userSpaceOnUse" x="0" y="0" width="86" height="44"><path d="M86 .665H.398v42.8H86V.666z" fill="#fff"/></mask><g mask="url(#mask0_165_5326)" fill="#1D3E7C"><path d="M58.841 25.52l.819.273c0 .181-.182.454-.273.636-.091.182-.273.273-.455.363-.182.091-.455.182-.728.091-.273 0-.546 0-.818-.181a.82.82 0 01-.546-.546 1.752 1.752 0 01-.273-.909c0-.454.09-.908.455-1.18.273-.273.727-.455 1.182-.455.364 0 .637.09.91.272.273.182.455.455.455.727l-.819.182c0-.09-.09-.182-.09-.182l-.183-.181c-.09 0-.182-.091-.273-.091a.5.5 0 00-.455.272c-.09.182-.181.364-.09.636 0 .273 0 .455.181.727.091.091.273.182.455.182s.273-.09.455-.181c0-.182.091-.273.091-.455zm1.183-.273c-.091-.817.546-1.544 1.364-1.635h.273c.455 0 .91.09 1.183.454.273.273.455.727.455 1.181 0 .273-.091.637-.182.91a.82.82 0 01-.546.544c-.273.182-.546.182-.91.182-.273 0-.636-.09-.91-.181a.82.82 0 01-.545-.546c-.091-.363-.182-.636-.182-.909zm1 0c0 .273 0 .455.182.727.091.182.273.182.455.182s.364-.09.455-.181a1.71 1.71 0 00.182-.728c0-.272 0-.454-.182-.636-.09-.181-.273-.181-.455-.181a.695.695 0 00-.455.181c-.181.091-.273.364-.181.636zm2.73-1.635h1.273l.455 1.908.455-1.908h1.273v3.09h-.818v-2.363l-.637 2.363h-.728l-.636-2.363v2.363h-.82l.183-3.09zm4.184 0h1.637c.273 0 .546.09.82.272.181.182.272.455.272.727 0 .273-.09.546-.273.727a1.538 1.538 0 01-.91.273h-.545v1.181h-1.001v-3.18zm1 1.363h.273c.183 0 .273 0 .364-.091.091-.09.091-.182.091-.273 0-.09 0-.181-.09-.272-.091-.091-.273-.091-.364-.091h-.273v.727zm2.184-1.363h1v2.363h1.547v.726h-2.456l-.09-3.09zm2.911 0h1v3.09h-1v-3.09zm3.639 2.635h-1.091l-.182.545h-1.001l1.183-3.09h1.091l1.183 3.09h-1l-.183-.545zm-.182-.636l-.364-1.09-.364 1.09h.728zm1.637-1.999h.91l1.183 1.726v-1.726h.91v3.09h-.91l-1.183-1.727V26.7h-.91v-3.09zm3.458 0h2.91v.727h-1v2.363h-.91v-2.363h-1v-.727zM56.476 11.707h4.64c.727 0 1.546.091 2.183.364.546.273 1 .636 1.364 1.09.364.455.637 1 .82 1.636.181.636.272 1.272.272 2 0 .817-.09 1.726-.364 2.544-.182.545-.546 1.09-1 1.545-.364.363-.91.636-1.456.817a6.934 6.934 0 01-1.91.273h-4.64l.091-10.268zm3.184 2.272v5.544h.728c.455 0 .91 0 1.364-.182.273-.182.546-.455.637-.727a5.701 5.701 0 00.273-1.727c.091-.818-.09-1.545-.546-2.18-.455-.455-1.091-.637-1.728-.637l-.728-.09zm7.096 4.544l3.002-.182c0 .364.182.818.364 1.09.364.455.818.637 1.364.637.364 0 .728-.091 1-.273.365-.273.456-.909.183-1.272l-.182-.182c-.455-.272-1-.545-1.637-.545a6.497 6.497 0 01-2.911-1.272 2.603 2.603 0 01-.91-2c0-.545.182-.999.455-1.453.364-.455.818-.91 1.364-1.09.819-.274 1.638-.455 2.456-.364 1.001-.091 2.093.181 3.002.727.728.545 1.183 1.363 1.183 2.271l-3.002.182c0-.363-.182-.727-.455-1-.273-.181-.637-.363-1-.272-.273 0-.546.09-.82.273-.181.181-.272.363-.272.545a.5.5 0 00.273.454c.364.182.637.364 1.091.364 1.001.181 2.002.454 2.911.908.546.273 1.001.637 1.274 1.09.273.455.455 1 .364 1.546 0 .636-.182 1.272-.546 1.817-.364.545-.91 1-1.547 1.272-.818.273-1.637.455-2.456.455-1.728 0-2.91-.364-3.639-1-.454-.909-.91-1.817-.91-2.726zm10.006 0l3.002-.182c0 .364.182.818.364 1.09.364.455.819.637 1.365.637.364 0 .727-.091 1-.273.364-.273.455-.909.182-1.272 0-.09 0-.182-.09-.182-.456-.272-1.001-.545-1.638-.545a6.497 6.497 0 01-2.911-1.272 2.603 2.603 0 01-.91-2c0-.545.182-.999.455-1.453.364-.455.819-.91 1.364-1.09.82-.274 1.638-.455 2.457-.364 1-.091 2.092.181 3.002.727.727.545 1.182 1.363 1.182 2.271l-2.91.091c0-.363-.183-.727-.456-1-.273-.181-.636-.363-1-.272-.273 0-.546.091-.819.273-.182.181-.273.363-.273.545a.5.5 0 00.273.454c.364.182.637.364 1.092.364 1 .181 2 .454 2.91.909.546.272 1.001.636 1.274 1.09.273.454.455 1 .364 1.545 0 .636-.182 1.272-.546 1.817-.364.546-.91 1-1.546 1.272-.819.273-1.638.455-2.456.455-1.729 0-2.911-.364-3.64-1-.636-.818-1.09-1.726-1.09-2.635zM39.563 36.352c.454 0 .818-.09 1.182-.273 1.729-.908 7.733-15.539 14.01-19.992l.09-.09v-.091s0-.273-.91-.273c-5.64-.182-11.462 11.632-14.463 16.266 0 .091-.273 0-.273 0-1.092-1.272-2.365-2.453-3.821-3.362-.182-.09-.273-.09-.455-.09-.455.09-1 .272-1.364.544-.364.364-.546.818-.455 1.364 0 .09 0 .272.09.363 1.183 1.817 2.548 3.453 4.094 4.998.728.454 1.547.727 2.275.636zM14.182 19.813H13v3.453h1.365c.819 0 1.546-.636 1.729-1.454v-.727c-.182-1.18-1.91-1.272-1.91-1.272z"/><path d="M46.203 19.177L40.745 6.91.445 9.181l11.19 30.442 21.469-6.815c-.546-.818-1.001-1.727-1.183-2.726-.182 0-1.546.09-2.365 0-7.55-.454-7.55-5.816-7.55-5.998v-1.272c0-.273.272-5.452 7.55-6.088a10.278 10.278 0 012.365 0c.91 0 1.82.181 2.638.545l.091.09v3.272s0 .091-.09 0c-.82-.454-1.73-.727-2.639-.909h-1.274c-3.274.273-3.547 2.908-3.547 2.908v1.272s.182 2.454 3.547 3c.455.09.82.09 1.274 0 2.365-.273 2.911-.637 2.911-.637h.091v.545c.728.182 1.456.455 2.092.91V16.814h5.004v8.087c1.728-2.272 3.547-4.907 4.184-5.725zm-33.022 6.997c-.09 0-.09 0 0 0l-.09 3.817s0 .09-.091.09H8.177s-.09 0-.09-.09V17.087s0-.09.09-.09h6.277c1.637-.092 6.459.363 6.459 4.452 0 5.27-7.733 4.725-7.733 4.725zm26.29-10.45c-1.546-.09-2.82-1.454-2.729-2.999.091-1.545 1.456-2.817 3.002-2.726a2.896 2.896 0 012.73 2.908 2.82 2.82 0 01-3.003 2.817z"/></g></g><defs><clipPath id="clip0_165_5326"><path fill="#fff" d="M0 0h86v44H0z"/></clipPath></defs></svg>