<svg width="98" height="48" viewBox="0 0 98 48" fill="none" xmlns="http://www.w3.org/2000/svg"><g clip-path="url(#clip0_165_5313)"><mask id="mask0_165_5313" style="mask-type:luminance" maskUnits="userSpaceOnUse" x="0" y="0" width="98" height="48"><path d="M98 0H0v48h98V0z" fill="#fff"/></mask><g mask="url(#mask0_165_5313)"><path d="M30.01 47.843H3.752A3.613 3.613 0 01.13 44.21V23.813c0-2.02 1.61-3.635 3.622-3.635h26.26a3.613 3.613 0 013.621 3.635v20.396c.101 2.019-1.509 3.634-3.621 3.634zM3.752 22.096c-.905 0-1.71.808-1.71 1.717v20.396c0 .908.805 1.716 1.71 1.716h26.26c.905 0 1.71-.808 1.71-1.716V23.813c0-.909-.805-1.717-1.71-1.717H3.75z" fill="#1D3E7C"/><path d="M32.324 41.684H1.135v2.02h31.19v-2.02zm-3.521-19.588h-5.936v-9.895c0-3.332-2.616-5.957-5.936-5.957s-5.936 2.625-5.936 5.957v9.895H5.06v-9.895C5.16 5.638 10.492.287 17.032.388c6.439.1 11.67 5.351 11.771 11.813v9.895zm-4.024-2.02h2.012V12.1c0-5.452-4.427-9.895-9.86-9.895s-9.86 4.443-9.86 9.895v7.977h2.012V12.1c0-4.341 3.522-7.976 7.949-7.976 4.326 0 7.948 3.534 7.948 7.976l-.201 7.977zM10.29 36.737c-1.005 0-2.011-.404-2.816-1.01-.403-.303-.503-.909-.201-1.413.301-.505.905-.505 1.408-.202.503.302 1.006.504 1.61.504.704 0 1.207-.404 1.207-.706 0-.303-.503-.707-1.207-.707-1.61.1-3.018-1.01-3.22-2.625.1-1.616 1.61-2.828 3.22-2.626 1.107 0 2.113.606 2.616 1.515.302.505.1 1.11-.403 1.313-.503.302-1.006.1-1.308-.303 0 0 0-.101-.1-.101-.201-.303-.503-.404-.805-.404-.704 0-1.208.404-1.208.707 0 .303.504.706 1.208.706 1.61-.202 3.018 1.01 3.22 2.626-.202 1.615-1.61 2.827-3.22 2.726zm6.843 0c-1.006 0-2.013-.404-2.817-1.01-.403-.303-.504-.909-.202-1.413.302-.404.906-.505 1.308-.202.503.302 1.006.504 1.61.504.704 0 1.207-.404 1.207-.706 0-.303-.503-.707-1.207-.707-1.61.1-3.018-1.01-3.22-2.625.101-1.616 1.61-2.828 3.22-2.626 1.107 0 2.113.606 2.616 1.515.302.505.1 1.11-.403 1.313-.503.302-1.006.1-1.308-.303 0 0 0-.101-.1-.101-.201-.303-.503-.404-.805-.404-.704 0-1.207.404-1.207.707 0 .303.503.706 1.207.706 1.61-.202 3.018 1.01 3.22 2.626 0 1.615-1.51 2.827-3.12 2.726zm8.652 0h-3.32a1.01 1.01 0 01-1.006-1.01v-6.664c0-.505.402-1.01 1.006-1.01a1.01 1.01 0 011.006 1.01v5.755h2.314a1.01 1.01 0 011.006 1.01c.1.404-.403.909-1.006.909z" fill="#1D3E7C"/><path d="M40.491 8h6.408v1.45h-4.671v1.987h2.313c.637 0 1.168.078 1.587.234.422.155.78.443 1.078.864.297.42.447.912.447 1.477 0 .58-.15 1.076-.45 1.49-.3.41-.642.694-1.027.846-.383.151-.93.227-1.639.227h-4.046V8zm1.737 7.126h1.683c.536 0 .916-.026 1.133-.078.218-.052.41-.17.571-.355a.993.993 0 00.242-.68c0-.394-.142-.68-.424-.859-.283-.178-.764-.267-1.447-.267h-1.758v2.24zm10.417-.515l1.642.276c-.21.6-.544 1.058-.997 1.373-.455.313-1.023.471-1.704.471-1.08 0-1.88-.353-2.398-1.06-.409-.567-.614-1.281-.614-2.146 0-1.03.269-1.838.806-2.421.537-.585 1.217-.876 2.04-.876.922 0 1.65.305 2.186.916.533.61.788 1.547.764 2.808h-4.108c.012.488.144.867.397 1.138.252.272.567.407.943.407.257 0 .473-.07.646-.21.176-.139.308-.364.398-.676zm.096-1.665c-.012-.477-.133-.84-.367-1.088a1.123 1.123 0 00-.852-.373c-.358 0-.653.132-.886.394-.234.261-.348.618-.344 1.067h2.45zm4.637 1.09V12.97c.286 0 .493-.018.623-.056a.764.764 0 00.366-.271.763.763 0 00.173-.493.825.825 0 00-.213-.545c-.142-.168-.356-.251-.64-.251a1.2 1.2 0 00-.584.139c-.172.092-.328.313-.467.663l-1.39-.3c.14-.543.442-.95.9-1.221.46-.272.985-.407 1.572-.407.748 0 1.327.171 1.738.517.411.343.617.774.617 1.295 0 .325-.088.593-.265.807-.178.213-.457.41-.84.594.458.126.802.316 1.027.57.228.253.342.568.342.948 0 .482-.226.9-.677 1.249-.45.35-1.102.523-1.95.523-1.48 0-2.384-.579-2.715-1.737l1.497-.275c.242.607.641.91 1.198.91.31 0 .555-.082.74-.243a.734.734 0 00.278-.571.666.666 0 00-.29-.571c-.193-.138-.447-.208-.758-.208h-.282zm4.216-3.677h5.521v6.216h-1.64V11.69h-2.24v4.886h-1.641V10.36zm10.899 4.252l1.641.276c-.21.6-.543 1.058-.996 1.373-.455.313-1.024.471-1.705.471-1.08 0-1.88-.353-2.397-1.06-.41-.567-.615-1.281-.615-2.146 0-1.03.27-1.838.806-2.421.537-.585 1.218-.876 2.04-.876.923 0 1.651.305 2.186.916.533.61.789 1.547.765 2.808H70.11c.012.488.143.867.397 1.138.252.272.567.407.942.407.258 0 .473-.07.647-.21.175-.139.307-.364.397-.676zm.096-1.665c-.012-.477-.134-.84-.367-1.088a1.122 1.122 0 00-.853-.373c-.357 0-.652.132-.886.394-.234.261-.347.618-.344 1.067h2.45zm2.483-2.587h1.665v1.487c0 .34.03.591.09.759.062.165.19.307.387.427.195.118.445.178.745.178.291 0 .618-.066.981-.2v-2.65h1.642v6.215H78.94V14.09c-.641.172-1.128.258-1.464.258-.503 0-.956-.108-1.357-.326-.401-.215-.677-.493-.826-.83-.148-.338-.222-.787-.222-1.348V10.36zm7.072 0h1.641v2.276h2.371v-2.276h1.641v6.216h-1.64v-2.61h-2.372v2.61h-1.641V10.36zm10.899 4.252l1.641.276c-.21.6-.543 1.058-.996 1.373-.455.313-1.024.471-1.705.471-1.08 0-1.88-.353-2.397-1.06-.41-.567-.615-1.281-.615-2.146 0-1.03.27-1.838.806-2.421.537-.585 1.218-.876 2.04-.876.923 0 1.651.305 2.186.916.533.61.789 1.547.765 2.808H90.66c.012.488.143.867.397 1.138.252.272.567.407.942.407.258 0 .473-.07.647-.21.175-.139.307-.364.397-.676zm.096-1.665c-.012-.477-.134-.84-.367-1.088a1.123 1.123 0 00-.853-.373c-.357 0-.652.132-.886.394-.234.261-.347.618-.344 1.067h2.45zM40 27.176l1.689-.166c.102.564.305.977.615 1.243.31.265.726.397 1.251.397.555 0 .974-.118 1.256-.353.281-.236.423-.511.423-.826a.791.791 0 00-.178-.52c-.117-.141-.325-.265-.62-.369-.202-.072-.661-.195-1.38-.375-.924-.232-1.573-.515-1.946-.852-.525-.474-.786-1.05-.786-1.731 0-.438.123-.849.369-1.23.247-.381.603-.67 1.068-.87.465-.2 1.024-.3 1.682-.3 1.072 0 1.88.238 2.422.715.543.477.826 1.112.854 1.909l-1.736.06c-.075-.444-.232-.761-.474-.955-.241-.194-.604-.291-1.087-.291-.5 0-.89.104-1.172.311a.632.632 0 00-.274.535c0 .204.086.377.258.521.217.186.746.377 1.587.577.84.197 1.46.405 1.862.617.403.213.719.503.946.872.228.37.342.825.342 1.365 0 .491-.136.953-.41 1.382a2.448 2.448 0 01-1.157.956c-.5.21-1.122.313-1.867.313-1.084 0-1.916-.25-2.497-.75-.58-.5-.926-1.228-1.04-2.184zm7.989 0l1.689-.166c.102.564.305.977.614 1.243.31.265.727.397 1.252.397.555 0 .974-.118 1.256-.353.28-.236.423-.511.423-.826a.79.79 0 00-.178-.52c-.117-.141-.325-.265-.62-.369-.202-.072-.662-.195-1.38-.375-.924-.232-1.573-.515-1.946-.852-.525-.474-.787-1.05-.787-1.731 0-.438.124-.849.37-1.23.247-.381.602-.67 1.067-.87.466-.2 1.024-.3 1.683-.3 1.072 0 1.88.238 2.421.715.544.477.827 1.112.855 1.909l-1.737.06c-.074-.444-.231-.761-.473-.955-.241-.194-.605-.291-1.088-.291-.499 0-.89.104-1.172.311a.632.632 0 00-.273.535c0 .204.086.377.257.521.218.186.747.377 1.587.577.84.197 1.462.405 1.863.617.403.213.719.503.946.872.228.37.341.825.341 1.365 0 .491-.135.953-.409 1.382a2.447 2.447 0 01-1.158.956c-.498.21-1.121.313-1.866.313-1.084 0-1.916-.25-2.497-.75s-.926-1.228-1.04-2.184zm8.492 2.78v-8.504h1.736v7.055h4.3v1.449H56.48zm-14.098 8.08V36.97c.286 0 .494-.018.623-.056a.764.764 0 00.366-.271.763.763 0 00.173-.493.825.825 0 00-.213-.545c-.142-.168-.356-.251-.64-.251a1.2 1.2 0 00-.584.139c-.172.092-.327.313-.467.663l-1.39-.3c.14-.543.442-.95.901-1.221.459-.272.984-.407 1.57-.407.75 0 1.328.171 1.74.517.41.343.616.774.616 1.295 0 .325-.088.593-.265.806-.178.214-.457.412-.84.595.459.126.802.316 1.027.57.228.253.342.568.342.947 0 .483-.226.9-.677 1.25-.45.35-1.102.523-1.95.523-1.48 0-2.384-.579-2.715-1.737l1.497-.275c.242.607.641.91 1.198.91.31 0 .555-.082.74-.243a.734.734 0 00.278-.571.666.666 0 00-.29-.571c-.193-.138-.447-.208-.758-.208h-.282zm4.274-2.994l-.31-1.595V32h1.785v1.447l-.267 1.595h-1.208zm5.929 2.898h-1.701c.054.508.19.887.405 1.14.218.254.517.382.9.382.608 0 .979-.332 1.114-.995l1.63.3c-.402 1.31-1.338 1.964-2.81 1.964-.963 0-1.704-.283-2.217-.85-.513-.565-.77-1.371-.77-2.42 0-.988.253-1.774.758-2.357.505-.585 1.252-.876 2.24-.876 1.377 0 2.261.575 2.655 1.724l-1.605.3a.847.847 0 00-.41-.567 1.323 1.323 0 00-.68-.188c-.377 0-.673.12-.88.361-.21.24-.332.603-.366 1.088h1.737v.994zm8.685 2.635h-4.707v1.641h-1.33v-2.982h.672c.28-.313.508-.8.692-1.465.182-.663.292-1.8.326-3.41h5.018v4.875h.67v2.982h-1.34v-1.64zm-.958-1.341l.006-3.521h-1.994c-.066 1.719-.325 2.787-.815 3.521h2.803zm3.351-4.875h1.641v2.276h2.372v-2.276h1.64v6.216h-1.64v-2.61h-2.372v2.61h-1.64V34.36zm8.528 1.917l-1.485-.264c.168-.607.457-1.056.866-1.347.41-.292 1.018-.437 1.825-.437.732 0 1.28.085 1.639.259.357.174.61.393.756.661.146.267.22.756.22 1.471l-.024 1.916c0 .545.026.949.078 1.208.052.26.15.537.293.832h-1.629a6.015 6.015 0 01-.157-.479 2.208 2.208 0 00-.058-.191c-.28.275-.58.48-.899.619a2.55 2.55 0 01-1.02.207c-.637 0-1.14-.174-1.507-.521-.367-.345-.55-.784-.55-1.315 0-.35.083-.663.25-.939.168-.273.402-.485.706-.63.3-.146.736-.274 1.305-.383.766-.145 1.3-.28 1.595-.404v-.166c0-.32-.078-.547-.234-.684-.158-.136-.453-.204-.886-.204-.294 0-.521.058-.685.176-.165.115-.297.321-.399.615zm2.204 1.329c-.21.07-.543.154-1 .252-.456.097-.755.193-.894.285-.214.154-.322.346-.322.579 0 .231.086.43.258.597a.897.897 0 00.654.251c.296 0 .58-.098.849-.291.197-.15.33-.33.391-.545.042-.14.064-.407.064-.8v-.328zm3.163-3.246h1.642v2.276h2.37v-2.276h1.642v6.216h-1.641v-2.61H79.2v2.61h-1.642V34.36zm7.234 0h1.641v2.276h2.372v-2.276h1.64v6.216h-1.64v-2.61h-2.371v2.61h-1.642V34.36zm12.636 0v6.216h-1.64V38h-.153c-.355 0-.616.046-.782.138-.168.092-.35.286-.555.58l-.1.123-1.083 1.734H91.2l1.178-1.798c.335-.515.639-.81.91-.889-.459-.027-.832-.2-1.12-.524-.285-.322-.429-.733-.429-1.234 0-.403.096-.747.286-1.032.19-.286.44-.48.756-.583.314-.104.783-.156 1.404-.156h3.243zm-1.64 1.054h-1.18c-.435 0-.739.062-.917.186-.175.124-.263.327-.263.613 0 .287.1.493.3.619.199.125.526.187.98.187h1.08v-1.605z" fill="#223F7B"/></g></g><defs><clipPath id="clip0_165_5313"><path fill="#fff" d="M0 0h98v48H0z"/></clipPath></defs></svg>